<svg viewBox="0 0 330 200" xmlns="http://www.w3.org/2000/svg"><g><g><g><g><g><line x1="60" y1="177" x2="55" y2="177" style="visibility: inherit;" fill="rgb(0, 0, 0)" stroke="rgb(204, 204, 204)" stroke-width="1px"></line><line x1="60" y1="164.35714285714283" x2="55" y2="164.35714285714283" style="visibility: inherit;" fill="rgb(0, 0, 0)" stroke="rgb(204, 204, 204)" stroke-width="1px"></line><line x1="60" y1="151.7142857142857" x2="55" y2="151.7142857142857" style="visibility: inherit;" fill="rgb(0, 0, 0)" stroke="rgb(204, 204, 204)" stroke-width="1px"></line><line x1="60" y1="139.07142857142878" x2="55" y2="139.07142857142878" style="visibility: inherit;" fill="rgb(0, 0, 0)" stroke="rgb(204, 204, 204)" stroke-width="1px"></line><line x1="60" y1="126.42857142857163" x2="55" y2="126.42857142857163" style="visibility: inherit;" fill="rgb(0, 0, 0)" stroke="rgb(204, 204, 204)" stroke-width="1px"></line><line x1="60" y1="113.78571428571448" x2="55" y2="113.78571428571448" style="visibility: inherit;" fill="rgb(0, 0, 0)" stroke="rgb(204, 204, 204)" stroke-width="1px"></line><line x1="60" y1="101.1428571428573" x2="55" y2="101.1428571428573" style="visibility: inherit;" fill="rgb(0, 0, 0)" stroke="rgb(204, 204, 204)" stroke-width="1px"></line><line x1="60" y1="88.50000000000014" x2="55" y2="88.50000000000014" style="visibility: inherit;" fill="rgb(0, 0, 0)" stroke="rgb(204, 204, 204)" stroke-width="1px"></line><line x1="60" y1="75.85714285714297" x2="55" y2="75.85714285714297" style="visibility: inherit;" fill="rgb(0, 0, 0)" stroke="rgb(204, 204, 204)" stroke-width="1px"></line><line x1="60" y1="63.21428571428582" x2="55" y2="63.21428571428582" style="visibility: inherit;" fill="rgb(0, 0, 0)" stroke="rgb(204, 204, 204)" stroke-width="1px"></line><line x1="60" y1="50.57142857142865" x2="55" y2="50.57142857142865" style="visibility: inherit;" fill="rgb(0, 0, 0)" stroke="rgb(204, 204, 204)" stroke-width="1px"></line><line x1="60" y1="37.92857142857149" x2="55" y2="37.92857142857149" style="visibility: inherit;" fill="rgb(0, 0, 0)" stroke="rgb(204, 204, 204)" stroke-width="1px"></line><line x1="60" y1="25.285714285714334" x2="55" y2="25.285714285714334" style="visibility: inherit;" fill="rgb(0, 0, 0)" stroke="rgb(204, 204, 204)" stroke-width="1px"></line><line x1="60" y1="12.642857142857157" x2="55" y2="12.642857142857157" style="visibility: inherit;" fill="rgb(0, 0, 0)" stroke="rgb(204, 204, 204)" stroke-width="1px"></line><line x1="60" y1="0" x2="55" y2="0" style="visibility: inherit;" fill="rgb(0, 0, 0)" stroke="rgb(204, 204, 204)" stroke-width="1px"></line></g><g transform="translate(50, 0)"><text x="0" y="177" dx="0em" dy="0.3em" style="text-anchor: end; visibility: hidden; font-family: Roboto, sans-serif; font-size: 12px; font-weight: 200;" fill="rgb(33, 33, 33)" stroke="none" stroke-width="1px">0.925</text><text x="0" y="164.35714285714283" dx="0em" dy="0.3em" style="text-anchor: end; visibility: inherit; font-family: Roboto, sans-serif; font-size: 12px; font-weight: 200;" fill="rgb(33, 33, 33)" stroke="none" stroke-width="1px">0.93</text><text x="0" y="151.7142857142857" dx="0em" dy="0.3em" style="text-anchor: end; visibility: hidden; font-family: Roboto, sans-serif; font-size: 12px; font-weight: 200;" fill="rgb(33, 33, 33)" stroke="none" stroke-width="1px">0.935</text><text x="0" y="139.07142857142878" dx="0em" dy="0.3em" style="text-anchor: end; visibility: inherit; font-family: Roboto, sans-serif; font-size: 12px; font-weight: 200;" fill="rgb(33, 33, 33)" stroke="none" stroke-width="1px">0.94</text><text x="0" y="126.42857142857163" dx="0em" dy="0.3em" style="text-anchor: end; visibility: hidden; font-family: Roboto, sans-serif; font-size: 12px; font-weight: 200;" fill="rgb(33, 33, 33)" stroke="none" stroke-width="1px">0.945</text><text x="0" y="113.78571428571448" dx="0em" dy="0.3em" style="text-anchor: end; visibility: inherit; font-family: Roboto, sans-serif; font-size: 12px; font-weight: 200;" fill="rgb(33, 33, 33)" stroke="none" stroke-width="1px">0.95</text><text x="0" y="101.1428571428573" dx="0em" dy="0.3em" style="text-anchor: end; visibility: hidden; font-family: Roboto, sans-serif; font-size: 12px; font-weight: 200;" fill="rgb(33, 33, 33)" stroke="none" stroke-width="1px">0.955</text><text x="0" y="88.50000000000014" dx="0em" dy="0.3em" style="text-anchor: end; visibility: inherit; font-family: Roboto, sans-serif; font-size: 12px; font-weight: 200;" fill="rgb(33, 33, 33)" stroke="none" stroke-width="1px">0.96</text><text x="0" y="75.85714285714297" dx="0em" dy="0.3em" style="text-anchor: end; visibility: hidden; font-family: Roboto, sans-serif; font-size: 12px; font-weight: 200;" fill="rgb(33, 33, 33)" stroke="none" stroke-width="1px">0.965</text><text x="0" y="63.21428571428582" dx="0em" dy="0.3em" style="text-anchor: end; visibility: inherit; font-family: Roboto, sans-serif; font-size: 12px; font-weight: 200;" fill="rgb(33, 33, 33)" stroke="none" stroke-width="1px">0.97</text><text x="0" y="50.57142857142865" dx="0em" dy="0.3em" style="text-anchor: end; visibility: hidden; font-family: Roboto, sans-serif; font-size: 12px; font-weight: 200;" fill="rgb(33, 33, 33)" stroke="none" stroke-width="1px">0.975</text><text x="0" y="37.92857142857149" dx="0em" dy="0.3em" style="text-anchor: end; visibility: inherit; font-family: Roboto, sans-serif; font-size: 12px; font-weight: 200;" fill="rgb(33, 33, 33)" stroke="none" stroke-width="1px">0.98</text><text x="0" y="25.285714285714334" dx="0em" dy="0.3em" style="text-anchor: end; visibility: hidden; font-family: Roboto, sans-serif; font-size: 12px; font-weight: 200;" fill="rgb(33, 33, 33)" stroke="none" stroke-width="1px">0.985</text><text x="0" y="12.642857142857157" dx="0em" dy="0.3em" style="text-anchor: end; visibility: inherit; font-family: Roboto, sans-serif; font-size: 12px; font-weight: 200;" fill="rgb(33, 33, 33)" stroke="none" stroke-width="1px">0.99</text><text x="0" y="0" dx="0em" dy="0.3em" style="text-anchor: end; visibility: hidden; font-family: Roboto, sans-serif; font-size: 12px; font-weight: 200;" fill="rgb(33, 33, 33)" stroke="none" stroke-width="1px">0.995</text></g><line x1="60" y1="0" x2="60" y2="177" fill="rgb(0, 0, 0)" stroke="rgb(204, 204, 204)" stroke-width="1px"></line></g></g><g transform="translate(60, 0)" clip-path="url(#clip_0)"><clipPath id="clip_0"><rect width="270" height="177"></rect></clipPath><g><g><g><line x1="0" y1="0" x2="0" y2="177" fill="rgb(0, 0, 0)" stroke="rgb(66, 66, 66)" stroke-width="1px" opacity="0.25"></line><line x1="30" y1="0" x2="30" y2="177" fill="rgb(0, 0, 0)" stroke="rgb(66, 66, 66)" stroke-width="1px" opacity="0.25"></line><line x1="60" y1="0" x2="60" y2="177" fill="rgb(0, 0, 0)" stroke="rgb(66, 66, 66)" stroke-width="1px" opacity="0.25"></line><line x1="90" y1="0" x2="90" y2="177" fill="rgb(0, 0, 0)" stroke="rgb(66, 66, 66)" stroke-width="1px" opacity="0.25"></line><line x1="120" y1="0" x2="120" y2="177" fill="rgb(0, 0, 0)" stroke="rgb(66, 66, 66)" stroke-width="1px" opacity="0.25"></line><line x1="150" y1="0" x2="150" y2="177" fill="rgb(0, 0, 0)" stroke="rgb(66, 66, 66)" stroke-width="1px" opacity="0.25"></line><line x1="180" y1="0" x2="180" y2="177" fill="rgb(0, 0, 0)" stroke="rgb(66, 66, 66)" stroke-width="1px" opacity="0.25"></line><line x1="210" y1="0" x2="210" y2="177" fill="rgb(0, 0, 0)" stroke="rgb(66, 66, 66)" stroke-width="1px" opacity="0.25"></line><line x1="240" y1="0" x2="240" y2="177" fill="rgb(0, 0, 0)" stroke="rgb(66, 66, 66)" stroke-width="1px" opacity="0.25"></line><line x1="270" y1="0" x2="270" y2="177" fill="rgb(0, 0, 0)" stroke="rgb(66, 66, 66)" stroke-width="1px" opacity="0.25"></line></g><g><line x1="0" y1="177" x2="270" y2="177" fill="rgb(0, 0, 0)" stroke="rgb(66, 66, 66)" stroke-width="1px" opacity="0.25"></line><line x1="0" y1="164.35714285714283" x2="270" y2="164.35714285714283" fill="rgb(0, 0, 0)" stroke="rgb(66, 66, 66)" stroke-width="1px" opacity="0.25"></line><line x1="0" y1="151.7142857142857" x2="270" y2="151.7142857142857" fill="rgb(0, 0, 0)" stroke="rgb(66, 66, 66)" stroke-width="1px" opacity="0.25"></line><line x1="0" y1="139.07142857142878" x2="270" y2="139.07142857142878" fill="rgb(0, 0, 0)" stroke="rgb(66, 66, 66)" stroke-width="1px" opacity="0.25"></line><line x1="0" y1="126.42857142857163" x2="270" y2="126.42857142857163" fill="rgb(0, 0, 0)" stroke="rgb(66, 66, 66)" stroke-width="1px" opacity="0.25"></line><line x1="0" y1="113.78571428571448" x2="270" y2="113.78571428571448" fill="rgb(0, 0, 0)" stroke="rgb(66, 66, 66)" stroke-width="1px" opacity="0.25"></line><line x1="0" y1="101.1428571428573" x2="270" y2="101.1428571428573" fill="rgb(0, 0, 0)" stroke="rgb(66, 66, 66)" stroke-width="1px" opacity="0.25"></line><line x1="0" y1="88.50000000000014" x2="270" y2="88.50000000000014" fill="rgb(0, 0, 0)" stroke="rgb(66, 66, 66)" stroke-width="1px" opacity="0.25"></line><line x1="0" y1="75.85714285714297" x2="270" y2="75.85714285714297" fill="rgb(0, 0, 0)" stroke="rgb(66, 66, 66)" stroke-width="1px" opacity="0.25"></line><line x1="0" y1="63.21428571428582" x2="270" y2="63.21428571428582" fill="rgb(0, 0, 0)" stroke="rgb(66, 66, 66)" stroke-width="1px" opacity="0.25"></line><line x1="0" y1="50.57142857142865" x2="270" y2="50.57142857142865" fill="rgb(0, 0, 0)" stroke="rgb(66, 66, 66)" stroke-width="1px" opacity="0.25"></line><line x1="0" y1="37.92857142857149" x2="270" y2="37.92857142857149" fill="rgb(0, 0, 0)" stroke="rgb(66, 66, 66)" stroke-width="1px" opacity="0.25"></line><line x1="0" y1="25.285714285714334" x2="270" y2="25.285714285714334" fill="rgb(0, 0, 0)" stroke="rgb(66, 66, 66)" stroke-width="1px" opacity="0.25"></line><line x1="0" y1="12.642857142857157" x2="270" y2="12.642857142857157" fill="rgb(0, 0, 0)" stroke="rgb(66, 66, 66)" stroke-width="1px" opacity="0.25"></line><line x1="0" y1="0" x2="270" y2="0" fill="rgb(0, 0, 0)" stroke="rgb(66, 66, 66)" stroke-width="1px" opacity="0.25"></line></g></g></g><g><g><line x1="0" y1="2515.9285714285734" x2="270" y2="2515.9285714285734" fill="rgb(0, 0, 0)" stroke="rgb(153, 153, 153)" stroke-width="1.5px"></line></g></g><g><g><line x1="30" y1="0" x2="30" y2="177" fill="rgb(0, 0, 0)" stroke="rgb(153, 153, 153)" stroke-width="1.5px"></line></g></g><g><g><g><g><g><path stroke="rgb(255, 112, 67)" stroke-width="2px" d="M31.866,294.8096179032641L31.914,171.66779611932634L32.532000000000004,226.71388146832402L32.766,161.5898871194254L32.85,165.9953590702122L33.222,94.527975544361L33.384,82.30772280098701L33.48,128.61594656476197L33.522,175.8504096016217L33.81,131.10144266780358L33.888,169.93075869234883L33.972,96.9007356181023L34.032,120.51191751617714L34.29,91.33158605264518L34.338,117.17035997434624L34.632,107.38788006748737L34.716,164.26454293856395L34.818,130.96186576763526L34.854,165.4680087772436L35.022,116.69978479103817L35.675999999999995,64.9627238999029L35.832,196.8728840928908L36.089999999999996,113.06658519744258L36.402,82.61467904302607L36.629999999999995,44.51166417566201L37.086000000000006,59.110150870827695L37.572,78.57214988714722L37.901999999999994,109.51465426775766L37.92,60.65164963819389L38.004,61.98316834669372L38.028,84.0008869380192L38.315999999999995,69.4250506620646L38.358000000000004,102.15343417008548L38.622,56.234917640135585L38.80200000000001,28.683807725220262L39.144000000000005,49.613436911001074L39.318,24.710919288898634L39.414,80.0074771613295L39.510000000000005,71.04259493167396L39.846000000000004,37.56841410169913L40.151999999999994,95.28603848302944L40.26,78.04848433507887L40.314,116.69253800840183L40.397999999999996,95.60770136773702L40.410000000000004,111.95585619945865L40.428,95.83062442436596L40.692,113.7399349230242L41.07,93.83613951652221L41.124,112.54318369247586L41.202000000000005,138.0704670512057L41.22,119.92795432587687L41.268,104.35992487061154L41.508,57.55881206522393L41.61,57.573395874083104L41.688,66.94718979953528L42.01199999999999,89.8421538030351L42.222,76.94340091676985L42.468,41.108897692919115L42.582,19.608195758608545L43.128,90.99340850261571L43.2,49.5389022444265L43.272,66.8090154418095L43.392,35.02826640794296L43.428000000000004,49.674070549460374L43.548,86.04594231223757L43.577999999999996,77.21974395005195L43.848,100.01927642483206L43.919999999999995,103.11762514728382L44.13,118.11207507093172L44.339999999999996,86.88151066156445L44.346,114.50027066347063L44.622,63.64301954093957L44.724000000000004,33.12866886742093L44.736,14.820058463309701L44.766,65.6443972747718L44.916000000000004,60.263499610154554L44.922000000000004,64.81521047078716L44.994,59.76598752776388L45.024,30.802449659515347L45.198,88.34491720302302L45.288000000000004,109.24845030437533L45.324,88.58717881757394L46.116,137.99992097942186L46.446,129.6109385070607L46.739999999999995,110.1697153793221L47.382,61.044686370450336L47.808,31.56966896512739L48.072,13.884658521933684L48.234,33.922973675869535L48.251999999999995,57.43945830067561L48.6,51.88266097392705L48.972,26.072453727213414L49.181999999999995,41.23565079903739L49.385999999999996,91.92911113241145L49.47,87.56061895453233L49.482,113.03477513989671L49.488,83.83507041710263L49.836,45.24389939311865L50.45399999999999,64.23201373102509L50.699999999999996,33.48206538147207L50.886,43.12734786383203L51.605999999999995,58.279560993384464L51.714,69.57445692095583L51.726000000000006,171.54466611446125L52.025999999999996,165.29816393520855L52.362,150.31225848816564L52.452,133.29341438528397L52.763999999999996,95.99031425017591L52.89,83.18636711281484L52.931999999999995,72.94992890263752L53.574,64.64681858687399L53.742,120.57077269901683L53.91,104.74561589449578L54.222,151.15285847734532L54.593999999999994,85.63457222926444L54.660000000000004,114.43327731833699L55.181999999999995,91.69807502595091L55.218,49.961702158427805L55.368,50.853882540348096L55.397999999999996,25.455186667066105L55.584,10.215969143096848L55.83,31.721760048567283L55.908,13.975913171997453L55.92,58.059387826512236L56.406,57.873741330855914L56.958,145.82549811730019L57.06,119.8984511454657L57.186,66.88192783013656L57.773999999999994,91.65539964906625L57.99,49.93609693229701L58.014,24.90451530223523L58.062000000000005,32.36169517486282L58.50599999999999,48.07412780961229L58.734,61.24762896085294L58.818000000000005,31.691434519368855L59.046,42.05296934656999L59.117999999999995,68.33784090032653L59.37,60.02722304365755L59.778000000000006,30.95919096905172L59.832,61.68157387381549L59.85,140.31909673234455L60.306,103.21597654286819L60.318,129.1173065787097L60.641999999999996,100.5084925821744L60.809999999999995,79.32961405276639L61.440000000000005,102.47717012909133L61.980000000000004,104.59236136983931L62.076,57.69827396476077L62.16,105.82027516333272L62.525999999999996,95.89531737308488L63.096000000000004,80.57529905879962L63.108,43.28803657813702L63.300000000000004,20.9156790897394L63.989999999999995,49.635081548997356L64.08,24.72390607225544L64.344,9.777200786210452L64.854,34.5234311764207L64.956,111.98344071944594L64.974,62.13292157452459L65.19,69.68290521980028L65.232,67.40192169458943L65.44800000000001,72.84430529183936L65.574,58.48131162315398L65.718,67.49193924897764L65.946,35.438020692243704L66.066,77.50431239790765L66.732,61.27731588679495L66.792,31.70924667493411L67.092,13.968405147817657L67.206,3.323900231547673L67.284,109.31814296431152L67.32,176.12557276632768L67.398,100.6182008026537L67.74,107.1819064009998L67.878,121.06150603738581L67.908,119.44788954183882L68.052,92.54559497039473L68.262,98.63341627462124L68.406,82.21815839972149L68.982,77.98800574452731L69.12599999999999,96.5213829133999L69.45,94.99850384319372L69.62400000000001,51.941959448773304L69.948,26.108032812121056L70.182,122.12418384263351L70.2,68.21736744843723L70.27199999999999,73.33357274414803L70.458,38.94300078934584L71.082,74.89210371043272L71.13,125.50173722255386L71.22,133.6382589968928L71.802,105.77513396084494L71.958,95.86823265159242L72.09,52.463796733812714L72.642,26.421135183144866L72.69,123.17642364942888L72.936,68.84871133251453L73.302,97.55072678207011L73.488,101.6364953616265L73.872,81.85875846226749L73.98,92.221314369745L74.03999999999999,50.275645764704194L74.046,25.108244601679775L74.16,47.46809903609327L74.298,98.3443068289697L74.412,84.59876266009104L74.70599999999999,120.62270500336854L74.766,115.4796822944057L74.78399999999999,64.2306665195006L74.874,89.67176003874089L75.07199999999999,104.936416150285L75.87,88.55402825288027L76.128,48.07527409458541L76.164,75.65615037615859L76.566,85.28892564156263L76.73400000000001,64.84636009390894L76.79400000000001,148.78574909532946L77.004,84.21430660005493L77.40599999999999,67.94756995355463L77.598,35.71139911499003L77.952,42.30370071428543L78.162,20.32507757142839L78.3,55.30110583524146L78.402,50.59964949466655L79.086,73.46584898918452L79.296,102.41672605687121L79.332,56.39289277697976L79.746,90.07723564874938L80.01,120.16386779785378L80.184,67.04117782156933L80.214,63.2628153278903L80.268,32.900546339591195L80.80799999999999,89.60377521106868L80.826,74.63912637193263L80.994,67.82158445810838L81.054,35.63580781772217L81.40199999999999,16.32434183349055L81.61200000000001,28.819123603555965L81.81,40.329582797082196L81.816,19.140606821106406L82.176,58.29535001207137L82.92,134.80898997768443L82.938,75.82825112946769L83.274,68.53505931262936L83.42999999999999,92.25439571461771L83.448,121.47016383737484L83.574,131.0392411595679L83.616,107.28065540043531L83.964,80.3826588592666L84,76.88670602025455L84.336,125.36051465960338L84.384,131.4578087783235L85.36200000000001,94.88895088599965L85.404,126.7968179389137L85.56599999999999,96.95495200863985L85.902,86.83008190987852L86.09400000000001,47.04090628878436L86.47800000000001,79.35790390031119L86.496,42.5575994830438L86.616,20.4774168326833L86.658,27.061178547660344L86.81400000000001,31.011435576646644L87.234,84.72438775459224L87.28800000000001,45.77748979561236L87.33,56.1236045820618L87.408,28.61701989209422L87.54,86.04786527518756L87.768,69.04770515863422L87.948,98.18098529196656L88.086,53.85144831803703L88.194,27.253726133679283L88.614,48.755387955292825L89.064,80.77947572416025L89.304,43.41054257735323L89.44800000000001,20.989182689269118L89.838,33.47037085885295L90.30600000000001,45.674401078021155L90.336,106.63319198010387L90.354,96.38306746314785L90.50999999999999,90.23299275297396L91.014,105.2731557788245L91.11600000000001,91.82100417198913L91.542,87.49575477827922L91.662,47.44031000982462L91.70400000000001,85.21654820268093L92.38199999999999,102.26328904864867L92.39999999999999,90.0150841338838L92.526,73.03356898379187L92.88,38.762998533132205L92.94,110.14874109397448L92.964,145.31785627551642L93.138,108.06757501060143L93.336,90.43272356907026L93.648,128.530217648435L93.75,96.14264909252253L93.834,86.34270016020801L93.93,46.74847723898188L94.032,22.991943486246264L94.272,100.24819171888399L94.54799999999999,55.091772174187426L94.554,52.07958180797391L94.68599999999999,63.65090135986981L94.896,99.35787627168015L94.956,92.01787803809378L95.05199999999999,163.32035558196796L95.10600000000001,92.93507049203787L95.19,149.4629579816939L95.41799999999999,152.0491390555483L95.43599999999999,86.17234057618606L95.64,46.646261488568875L95.664,93.16868248038666L95.80199999999999,50.84406663108908L95.83800000000001,49.5309584821149L95.85,24.661432232126074L96.08999999999999,115.30974873812278L96.126,106.27152333802762L96.20400000000001,152.06840294346435L96.234,187.32678016612928L96.61800000000001,107.33892524253461L96.732,134.2668025528346L96.786,75.50293867455785L97.056,66.17862445002633L97.194,99.26909818751531L97.206,54.50431605536645L97.212,27.645446776077012L97.566,34.006254059167816L98.52,55.01047276042573L98.838,27.949140799112676L98.958,86.6329318867814L99.144,46.922616274926035L99.19800000000001,47.17808826841698L99.3,107.53534400850072L99.402,87.55931504004923L99.588,170.0758524179764L99.894,96.98836859364296L100.032,98.08825657205325L100.116,53.79581108608898L100.56,79.0884725710608L101.244,66.47760204609804L101.82000000000001,34.82941837051585L101.85000000000001,15.840508165166762L102.06599999999999,4.447162041957297L102.252,58.9097972077358L102.834,51.360143943646975L102.99,25.758943509045427L103.014,30.23009455347768L103.11,13.080913874943624L103.36200000000001,2.7914054678233193L103.746,-3.382299576448914L103.764,18.847481499422106L103.86,6.251346042510397L104.43599999999999,-1.3063352316366794L104.75399999999999,33.822919185942965L105.324,74.73234314168411L106.032,131.2924315121468L106.19999999999999,115.86113300244182L106.554,64.45953694432227L106.65,59.552583411885L106.836,83.79997803218626L107.268,45.22284396216899L107.382,22.076563520158413L107.64,8.1887952549523L107.76,-0.14386570417141242L108.10799999999999,43.01973986988178L108.21000000000001,44.83636242539065L108.372,21.844674598091398L108.498,8.049661901711929L108.57,93.42345240029579L108.66,50.99692858303471L108.68400000000001,25.541014292677907L108.786,32.743594569128476L109.00200000000001,136.33500320699656L109.242,97.81526754320329L109.44,53.63201766877917L110.10000000000001,88.93157279805344L110.418,48.30180082168925L110.442,68.87631590888097L110.562,95.91702492413907L110.856,52.49307209734062L111.03,26.438700401261514L111.282,10.806077383613939L111.588,1.4265035730256073L111.726,16.870107476980127L112.08,131.85364067005216L112.098,151.85717442387326L112.488,114.15241328927276L112.662,100.89460024864918L112.866,89.1938708538841L113.07600000000001,48.45917965518772L113.21400000000001,52.11361642806136L113.31,82.40152998387717L113.628,75.03309655303565L113.74799999999999,39.96271507467851L113.826,56.38078131989263L113.862,133.12503106850315L113.994,122.98107793348647L114.486,68.73150390294907L115.33200000000001,73.64205461685475L115.72800000000001,76.58838504519854L115.77,40.89588816997626L115.824,56.94068517707133L115.926,147.107276287212L115.998,158.12781317964107L116.034,123.53379861247923L116.38799999999999,69.06313631034467L116.688,64.47599042115537L116.97,75.77126834784717L117.18599999999999,88.56882030109277L117.33,70.5602781741774L117.348,37.279024047363464L117.798,41.391932931879815L117.834,19.778016901984913L118.01400000000001,37.45898870390016L118.068,17.418250365197345L118.092,5.393807361975658L118.128,104.13837920369316L118.67999999999999,57.42588466507301L118.686,29.398387941901056L118.73400000000001,54.724706860294354L118.758,117.6824378050542L118.86,131.1078664502097L119.244,73.60757701298301L119.358,170.2184965992867L119.562,97.07395510242917L119.706,146.30281062685253L120.168,157.6451337834253L120.546,150.82858025261672L120.822,116.08932671427938L121.086,95.24577459127684L121.2,119.51882902129807L121.602,92.58815865807036L121.95,50.495752337699244L122.08800000000001,67.38312549777338L122.574,57.8488612921857L122.742,172.68250130638705L122.844,165.98086505036397L122.856,94.53137617307563L123.048,85.37593640853976L123.23400000000001,46.1684189879811L123.588,53.29322995549805L124.446,55.014046608247575L124.59,76.1144872573332L124.644,40.611549497256924L124.68,19.309786841211288L124.956,118.90967493010967L124.97399999999999,66.28866210092295L125.088,34.71605440341096L125.202,83.2009969085783L125.88,75.51277670785637L125.96400000000001,102.06002822149975L126.576,56.17887407575693L126.702,96.75985842623247L127.134,95.14158915089338L127.5,52.027810633393216L127.93199999999999,50.24120488349745L128.064,25.087580072955713L128.166,31.066753376938244L128.44199999999998,166.8296368399624L128.646,151.23114223101803L129.036,130.63392075447823L129.35999999999999,73.32320959554401L129.516,63.01844426078815L129.546,100.18243082300485L129.972,122.48082276033475L130.188,105.89164593128643L130.482,121.69213041591482L130.85399999999998,93.89213949484042L130.86,81.92746225961365L131.064,92.26253664815258L131.148,78.39563062384029L131.4,41.98023551716137L132.40200000000002,68.29420060268147L132.588,61.853381606900285L132.792,32.05488610699743L133.158,67.40884930324971L133.218,35.38816672480696L133.44,84.25269880415382L133.488,101.68497940953264L133.638,93.41413992080493L133.746,50.99134109534015L133.758,97.78252531019282L133.89600000000002,152.371370586746L133.902,120.07993305674198L133.908,66.99081697690238L133.926,35.13734732899861L134.04,16.02526554025637L134.25,4.558016467010951L134.436,124.10623845163522L134.56199999999998,69.4066002138382L134.67,95.3313901831038L134.73,85.85594481455672L135.26399999999998,110.8201195849622L135.348,61.43492889383457L135.46800000000002,31.80381447915787L135.522,36.5012746810163L135.56400000000002,47.49294337131906L135.57,23.438623165648558L135.744,9.006031042246208L135.804,79.94964813857067L135.924,42.91264602599959L136.33800000000002,121.83326572980978L136.63199999999998,68.04281658074311L136.638,35.768547091303006L136.82999999999998,16.403985397638934L137.058,105.92812963863393L137.72400000000002,110.36786370258788L137.874,98.62387049663836L137.892,54.117179440840204L137.946,27.413164807361266L138.11399999999998,11.390756027273996L138.324,46.72968903223183L138.39600000000002,47.062331922800496L138.63000000000002,23.18025629653738L138.78,169.64214984224498L138.882,96.72814704820424L139.29,52.979745371779735L139.42200000000003,88.0293472056293L139.59,99.62859424278496L139.914,88.43426725036545L140.71200000000002,48.00341749307652L140.718,23.7449076387031L141.288,9.189801726078942L141.55800000000002,34.17099174034192L142.284,41.37945628949657L142.326,76.35397701052308L143.076,88.91844549869826L143.364,85.75421957430464L143.604,112.61986720034129L143.75400000000002,62.51477746306202L143.868,32.45172362069435L143.898,42.509142807365244L144.036,20.448342827276324L144.16799999999998,33.14586694165733L144.294,48.54463086968878L144.702,57.783889226507696L145.01999999999998,57.7084421708532L145.368,53.64958380597372L145.63199999999998,83.32311041062448L145.656,44.936723389231766L145.80599999999998,21.904891176396074L146.916,59.95392062524511L147.006,30.915209518004094L147.024,13.491982853659579L147.15599999999998,28.972050957487337L147.19199999999998,54.46890466964628L147.48000000000002,75.78740209417224L147.57,77.87559353158869L147.81,102.96685610151474L147.846,98.86578775606263L147.93,91.72262492872332L147.996,117.97162612649335L148.05,65.72583281875309L148.32600000000002,65.02767825396124L148.392,33.95946409523399L148.428,15.318535599997647L148.782,60.32448148703921L148.94400000000002,55.21920739568532L149.082,28.074381580268447L149.502,39.882737583109694L149.63400000000001,46.96775118481461L149.832,81.86808076568947L149.934,86.20652255456758L149.976,46.666770675597625L150.216,56.657173110053016L150.294,66.3974561411171L150.324,65.43065224737948L150.35999999999999,62.29649998337642L150.378,53.39210532319068L150.834,49.454249187435906L150.84,58.32966021715598L150.852,81.80878204970112L151.104,44.028126372677804L151.122,58.82002809869232L151.308,30.234874002072477L151.47000000000003,106.44641334189137L151.488,58.81070514799197L151.518,58.32453172374375L151.854,29.937576177103274L151.944,12.905402849119156L151.998,33.33542027218088L152.01,52.404404438393776L152.304,82.57600279007683L152.388,128.77409272149663L152.646,105.92156633759252L152.916,58.49579694541253L153.162,58.1355868021961L153.24,29.824209224174734L153.24599999999998,12.837382677361925L153.36599999999999,153.1555195384502L153.37800000000001,143.02667185011063L153.408,136.94936323710684L153.47400000000002,114.57277021734969L154.14,63.686519273266896L154.266,52.986640012010504L154.67399999999998,26.734841150063545L154.68,41.63308325274752L154.698,181.6831820488384L154.704,103.95276637216011L154.93800000000002,57.31451696615309L154.99200000000002,66.79186245477732L155.136,35.01797461572347L155.334,15.95364191229117L155.48399999999998,4.515042290231831L155.7,35.11217764922434L155.928,35.84203503758497L156.168,91.36866842986497L156.21599999999998,49.764058200775985L156.408,66.94410901561942L156.486,35.1093225522289L156.86999999999998,41.942454776628814L157.26,20.108330008834315L157.398,7.00785514815766L157.90200000000002,53.93329255557821L157.92000000000002,88.60147551590845L157.95,48.10374245240216L158.35199999999998,80.38848842242568L158.46,114.35055917621882L158.91000000000003,63.55319264858833L159.14399999999998,63.72409415186239L159.15,33.17731363397444L160.09199999999998,82.27775244691647L160.344,98.33876420553317L160.35,82.04136715826853L160.74,44.16767743781836L160.776,55.15771716738558L160.896,246.96141856511497L162,206.10889645767955L162.042,166.77139716699236L163.326,139.95807371606284L163.476,78.91770137249472L163.554,104.26828679552538L163.716,91.2180827820096L163.758,162.05459220874783L163.824,92.1756124681058L163.854,104.27748021824642L163.90200000000002,94.9696404060331L163.986,51.92464138647699L164.154,138.4785273714282L164.568,152.95056383017084L164.586,120.4274490027971L164.838,157.10408309055575L165.048,110.27671547333881L165.27,103.25170337915706L165.816,99.03669612264795L165.912,102.5280769659733L166.554,123.88821044611576L166.596,69.27578341052666L166.668,36.50832718917302L166.974,58.99067040865775L167.04000000000002,30.33725938805178L167.046,80.57371989936297L167.58599999999998,71.38234057456636L167.60399999999998,37.772261487596836L168.48600000000002,17.6062140354153L168.51,65.15496380005955L168.516,34.03583542289274L168.618,15.364358396592786L168.708,99.17448915403605L168.768,88.16180419711617L168.834,75.93519115321845L168.864,68.5992233268797L168.894,165.34046360242922L168.91799999999998,150.33763828849783L168.95399999999998,220.00257493498646L169.098,209.35707550908785L169.15800000000002,148.65235394040133L169.31400000000002,126.27708645939465L169.326,213.05832697830672L169.584,148.71185743227562L169.722,84.16997160222262L170.02800000000002,108.83919962469407L170.172,86.18038102010793L170.286,122.50827684073727L170.37,129.74646608700385L170.568,103.44005821491152L171.246,113.19739505598714L171.54,62.86129417644955L171.906,89.2430194568541L172.026,48.48866881696971L172.092,80.22656141722202L172.212,76.79304755502764L172.572,65.10034703647845L172.65,34.003065364744145L172.87199999999999,79.7083919150745L172.992,94.63602106845228L173.058,82.37379120378074L173.574,86.50994881742223L173.63400000000001,108.65833148723938L174.48000000000002,90.78717745505291L174.702,77.51041510798036L174.714,67.38311031007986L174.888,35.37272332890495L175.12199999999999,16.166491140200147L175.41,4.6427518269772925L175.698,-2.2714917609564873L175.71,63.81803053067154L175.75799999999998,33.23367546126017L175.938,99.16869632420651L176.076,54.44407493738099L176.16000000000003,27.609302105285668L176.502,87.76689204764766L177.078,115.0314994951205L177.348,63.96175683992948L177.372,33.31991124681488L177.732,14.934803890946116L178.008,60.094242461608026L178.188,124.36203441761265L178.32,100.20939921327687L178.368,88.7827502326605L179.1,48.212507282453494L179.28,94.10842995671749L179.412,72.47932359303586L179.61,110.67531480881043L179.78400000000002,124.74240554864679L180.054,69.78830047204525L180.28799999999998,36.815837426084286L180.804,59.175176550804295L181.242,61.0972844931919L181.392,59.69647933086378L181.47,61.410066161227476L181.524,31.788896839593516L181.99800000000002,14.016195246613188L182.352,3.352574290825109L183.036,34.41469684958047L183.126,41.525679355039706L183.438,45.792268858315346L183.60000000000002,89.846725581521L183.97199999999998,179.49368532973034L184.656,178.51063356979023L184.878,163.59119377756414L185.088,168.01816367385223L185.286,123.84900683925991L185.53199999999998,111.39507819870983L186.18,113.64803283863331L186.276,91.22692833812873L186.402,97.84221629526186L186.456,105.51631569656465L186.552,88.90196798064805L186.93,48.284037931245976L186.93599999999998,23.913279901604717L187.02,65.48132806800295L187.68,82.39485613318631L187.758,116.62463433290097L187.82399999999998,107.06045469489447L188.36399999999998,146.0189543638291L188.42399999999998,106.63589112175882L188.826,58.924391815912436L189.078,94.91655860704715L190.02599999999998,51.89279230708536L190.53,63.53882765933651L190.542,110.86828661744387L190.782,83.93995796398801L190.788,113.41650875917095L190.79399999999998,170.08513270410228L190.89,148.86206554186884L190.968,84.26009646797839L190.98000000000002,45.498915023644166L191.574,22.242206157043736L192.474,8.288180837083276L192.858,33.630019206944446L192.89399999999998,39.20253002762825L192.93,18.46437515943419L192.95399999999998,36.670803658369785L192.96,75.4770429462558L193.41000000000003,88.392285060138L193.65,104.16873116312323L193.98,57.44409584073096L194.634,29.409314647295645L194.70000000000002,50.048741063462806L194.748,24.97210178093476L195.036,77.3546253350928L195.18,72.00495376376507L195.42,86.30915212232517L195.438,46.7283484162523L195.624,90.40837331628323L195.684,49.18788113262707L195.726,24.45558582243343L195.834,9.61620863631714L196.176,34.42683588648472L196.296,80.21802504939046L196.314,69.00767627492581L196.44,123.18728731184781L196.95600000000002,117.01843167949332L197.50199999999998,65.15391615055306L197.514,34.03520683318904L197.70600000000002,46.01330266262269L197.814,89.97934586410545L199.512,48.93046466132041L199.668,24.301135939649438L199.932,9.523538706646907L200.262,82.78148745346273L200.63400000000001,44.61174961493489L200.71200000000002,21.709906911817953L201.264,30.444930140612502L201.438,13.209815227224635L201.672,2.868746279191914L202.062,44.82730705989956L203.352,21.839241378796988L203.826,56.20960411966267L203.982,102.76594643829806L204.114,56.60242500583586L204.22799999999998,28.904312146358585L204.34799999999998,12.285444430672348L204.37800000000001,77.23471406571714L204.47400000000002,116.20427584674422L204.546,64.66542265090376L204.642,33.7421107333994L204.80399999999997,105.49426325640242L205.212,91.95366865853593L205.506,111.4137011776831L205.584,109.95427999899442L205.632,159.64168818851857L205.86,114.8095314165729L206.202,131.25708311647557L206.63400000000001,121.86030916226994L206.832,93.99304674265359L206.874,118.7671923121239L206.928,66.20317253013152L207.228,120.28831822853276L207.246,67.1158480799767L207.37199999999999,77.35518294313985L207.444,110.59063782025756L207.55800000000002,103.44005678730836L207.672,90.72114477707962L208.488,91.51836096140148L208.974,124.77446398415479L208.98000000000002,92.28366438401444L209.184,106.50355875744923L209.298,89.49431381717888L209.574,71.11557428382888L210.006,93.8027046973375L210.036,51.22447996125965L210.192,149.29655522747098L210.46800000000002,84.52079027933966L210.558,73.75058280255247L210.828,95.38370980857161L211.04999999999998,52.173083028000214L211.308,63.7070020918856L211.428,70.62735353021672L211.464,85.48247141051466L211.542,46.232339989166036L211.71,22.682261136356754L211.96800000000002,64.74271680885424L212.208,54.85983541847732L212.60999999999999,61.57301195578098L212.76000000000002,90.6312372282693L212.80200000000002,132.80458770112367L212.826,95.69695795383895L213.42,86.07528547699775L213.43800000000002,46.588028429055896L213.57000000000002,22.89567420029068L213.678,64.87076464721493L213.87,33.86531593118604L214.24200000000002,15.262046701568764L214.326,102.43340510027812L214.428,56.40290020302402L214.434,103.70518752912825L214.686,118.46461250003827L215.28,66.0216246428802L215.442,34.55583192858514L216.31799999999998,15.676356300008338L216.63600000000002,4.348670922862183L217.284,-2.4479403034256157L217.35000000000002,77.75978715123605L218.088,41.5987294335987L218.442,19.902094803016478L218.664,6.884114024666897L218.79,100.21614652901012L219.012,85.72186648011534L219.228,70.45763839153079L219.234,67.86676159762774L219.384,61.59691820386818L219.756,74.04382501747486L219.792,147.73650770438041L219.882,117.29901532732275L220.18200000000002,169.67597147296132L220.33800000000002,167.92304900654017L220.44,121.63069064921557L220.578,90.39740038305108L220.854,49.181297372687716L221.24400000000003,69.40401383948004L221.286,140.93897058025598L221.334,79.50623949101085L221.622,80.10689596969186L221.676,117.10432154831558L222.03,147.3299571584639L222.108,83.34083143793553L222.978,44.94735600561845L223.05,21.91127074622827L223.24800000000002,41.80387315243145L223.26,20.025181034315946L223.49999999999997,49.100782715743456L223.89,48.48498813290765L224.334,24.033850022601786L224.616,40.0124885762704L224.832,18.95035028861948L225.006,6.313067316028837L225.17999999999998,32.444951094311904L225.25799999999998,70.99327389341241L225.27599999999998,37.53882147890459L225.672,17.466150030199994L225.69,5.422547160977134L225.94799999999998,-1.8036145605565903L226.578,-11.238091304190954L227.256,21.91425592217992L227.37,29.162819172313377L227.412,43.089870066097355L227.418,20.79677918251555L227.46,35.51617614445803L227.85,16.252562829531826L227.87400000000002,4.694394840576344L228.018,51.78874964172883L228.09,26.016106927894374L228.16799999999998,10.552521299593883L228.21,1.2743699226135732L228.696,19.789140457029877L228.894,6.816341417075016L228.91799999999998,66.46116911677684L229.08,62.914810105014865L229.09199999999998,32.691743205866054L229.49400000000003,94.16113572258318L229.53,51.439538576406925L229.63199999999998,25.80658028870117L230.05200000000002,119.88877087699106L230.112,87.94752814520018L230.214,78.36069544982944L230.256,90.12247656228213L230.274,161.39728876275214L230.358,91.78123040050836L230.42399999999998,78.10684687525365L231.24,41.806965268009215L231.462,20.02703630366278L231.792,92.54146126344243L231.834,50.46773390092259L232.224,25.22349748341064L232.374,47.537250765131844L232.428,23.46520760193624L232.5,9.02198170401888L232.614,22.832175015933064L232.71599999999998,36.73741364450852L232.806,73.17580831374524L233.04000000000002,130.3585106153832L233.112,157.44359741668035L233.262,120.05833701271737L233.442,176.68307827868864L233.484,100.95270411007031L233.832,97.65729656119602L233.898,77.61889644017936L234.108,116.43484555726192L234.22199999999998,87.27989332787875L234.264,47.31079313958451L234.54000000000002,121.40722185597541L234.684,67.78719025644232L234.852,35.615171296722465L234.87,46.9612813407427L235.08,53.76894736715496L235.48800000000003,53.13822966558438L235.638,57.47511636205979L235.84199999999998,29.427926960093078L235.85999999999999,33.67096150922066L236.172,15.145434048389532L236.178,4.03011757189097L236.226,31.075181247829132L236.304,13.587965891554616L236.634,33.744958097641984L236.79600000000002,87.43469551157399L237.156,99.5805873024978L237.162,106.55933830090608L237.318,58.87846012340089L237.39000000000001,30.269933216897684L237.48,13.104817072995736L237.6,70.23425451032941L237.654,61.165071209659374L237.708,84.0863612824449L237.888,45.39467391232396L238.18200000000002,64.32247844254815L238.512,78.48872248139632L238.704,42.03609063169504L238.836,62.30732847417096L239.04,32.32725422735966" style="fill: none;" fill="none"></path></g></g></g></g><g opacity="0.2"><g><g><g><path stroke="rgb(255, 112, 67)" stroke-width="2px" d="M31.644,217.22705350603388L31.854,127.83340031760086L31.866,333.144668034145L32.532000000000004,309.1751684801921L32.766,63.98044640677319L32.85,172.60045991625117L33.222,-12.642857142857176L33.384,63.98044640677319L33.48,198.0712276186263L33.522,246.6977867398945L33.81,63.98044640677319L33.888,228.17345503398363L33.972,-12.642857142857176L34.032,155.92841066632963L34.29,47.56129625865393L34.338,155.92841066632963L34.632,92.71418523788456L34.716,249.57944992610405L34.818,81.00788068771367L34.854,217.22720422063568L35.022,43.54746498380391L35.675999999999995,-12.642857142857176L36.089999999999996,-12.642857142857176L36.402,36.93682112012591L36.629999999999995,-12.642857142857176L37.086000000000006,81.00788068771367L37.572,107.76514823096146L37.901999999999994,155.92841066632963L37.92,-12.642857142857176L38.004,63.98044640677319L38.028,117.02746479851868L38.315999999999995,47.56129625865393L38.358000000000004,151.24600941794267L38.622,-12.642857142857176L38.80200000000001,-12.642857142857176L39.144000000000005,81.00788068771367L39.318,-12.642857142857176L39.414,162.9523139681136L39.510000000000005,57.59527158737185L39.846000000000004,-12.642857142857176L40.151999999999994,181.86247505460477L40.26,52.19215311322896L40.314,174.6586185182845L40.397999999999996,63.98044640677319L40.410000000000004,136.47808844702593L40.428,71.64277676173623L40.692,140.60390067100533L41.07,63.98044640677319L41.124,140.60374995640353L41.202000000000005,176.3613920892989L41.22,92.71418523788456L41.268,81.00788068771367L41.508,-12.642857142857176L41.61,57.59527158737185L41.688,81.00788068771367L42.01199999999999,124.1845998082843L42.222,57.59527158737185L42.468,-12.642857142857176L43.2,-12.642857142857176L43.272,92.71418523788456L43.392,-12.642857142857176L43.428000000000004,71.64277676173623L43.548,140.60374995640353L43.577999999999996,63.98044640677319L43.848,134.2185751370022L43.919999999999995,107.76514823096146L44.13,140.60374995640353L44.339999999999996,40.03566404751371L44.346,155.92841066632963L44.622,-12.642857142857176L44.736,-12.642857142857176L44.766,141.88090549196525L44.916000000000004,52.19215311322896L44.922000000000004,71.64277676173623L44.994,52.19215311322896L45.024,-12.642857142857176L45.198,174.6586185182845L45.288000000000004,140.60374995640353L45.324,57.59527158737185L46.116,212.11903422219424L46.446,117.02746479851868L46.739999999999995,81.00788068771367L47.382,-12.642857142857176L48.072,-12.642857142857176L48.234,63.98044640677319L48.251999999999995,92.71418523788456L48.6,43.54746498380391L48.972,-12.642857142857176L49.181999999999995,63.98044640677319L49.385999999999996,167.96930163247256L49.47,81.00788068771367L49.482,151.24600941794267L49.488,40.035513332911925L49.836,-12.642857142857176L50.45399999999999,92.71418523788456L50.699999999999996,-12.642857142857176L50.886,57.59527158737185L51.605999999999995,81.00788068771367L51.714,86.51680081231258L51.726000000000006,324.49997990471996L52.025999999999996,155.92841066632963L52.362,127.83340031760086L52.452,107.76514823096146L52.763999999999996,40.03566404751371L52.89,63.98044640677319L52.931999999999995,57.59527158737185L53.574,52.19215311322896L53.742,204.45670386723123L53.91,81.00788068771367L54.222,220.7637223516193L54.593999999999994,-12.642857142857176L54.660000000000004,157.63133495194583L55.181999999999995,57.59527158737185L55.218,-12.642857142857176L55.368,52.19215311322896L55.397999999999996,-12.642857142857176L55.584,-12.642857142857176L55.83,63.98044640677319L55.908,-12.642857142857176L55.92,124.1845998082843L56.406,57.59527158737185L56.958,277.7531332969667L57.06,81.00788068771367L57.186,-12.642857142857176L57.773999999999994,128.8156073774611L57.99,-12.642857142857176L58.014,-12.642857142857176L58.062000000000005,43.54746498380391L58.50599999999999,71.64277676173623L58.734,81.00788068771367L58.818000000000005,-12.642857142857176L59.046,57.59527158737185L59.117999999999995,107.76514823096146L59.37,47.56129625865393L59.778000000000006,-12.642857142857176L59.832,107.76514823096146L59.85,258.2753810201374L60.306,47.56129625865393L60.318,167.96930163247256L60.641999999999996,57.59527158737185L60.809999999999995,47.56129625865393L61.440000000000005,137.19850424357833L61.980000000000004,107.76514823096146L62.076,-12.642857142857176L62.16,178.00327696119047L62.525999999999996,81.00788068771367L63.096000000000004,57.59527158737185L63.108,-12.642857142857176L63.300000000000004,-12.642857142857176L63.989999999999995,92.71418523788456L64.08,-12.642857142857176L64.344,-12.642857142857176L64.854,71.64277676173623L64.956,228.17345503398363L64.974,-12.642857142857176L65.19,81.00788068771367L65.232,63.98044640677319L65.44800000000001,81.00788068771367L65.574,36.93682112012591L65.718,81.00788068771367L65.946,-12.642857142857176L66.066,140.60374995640353L66.732,36.93682112012591L66.792,-12.642857142857176L67.398,-12.642857142857176L67.74,117.02746479851868L67.878,141.88090549196525L67.908,117.02746479851868L68.052,52.19215311322896L68.262,107.76514823096146L68.406,57.59527158737185L68.982,71.64277676173623L69.12599999999999,124.3214486667089L69.45,92.71418523788456L69.62400000000001,-12.642857142857176L70.2,-12.642857142857176L70.27199999999999,81.00788068771367L70.458,-12.642857142857176L71.082,128.8157580920629L71.13,201.41618749073587L71.22,145.84304165840157L71.802,63.98044640677319L71.958,81.00788068771367L72.09,-12.642857142857176L72.936,-12.642857142857176L73.302,140.60374995640353L73.488,107.76514823096146L73.872,52.19215311322896L73.98,107.76514823096146L74.03999999999999,-12.642857142857176L74.046,-12.642857142857176L74.16,81.00788068771367L74.298,174.6586185182845L74.412,63.98044640677319L74.70599999999999,174.6586185182845L74.766,107.76514823096146L74.78399999999999,-12.642857142857176L74.874,127.83340031760086L75.07199999999999,127.83340031760086L75.87,63.98044640677319L76.128,-12.642857142857176L76.164,117.02746479851868L76.566,99.73808853966854L76.73400000000001,34.18251177242824L76.79400000000001,274.6948325974602L77.004,-12.642857142857176L77.40599999999999,43.54746498380391L77.598,-12.642857142857176L77.952,52.19215311322896L78.162,-12.642857142857176L78.3,107.76514823096146L78.402,43.54746498380391L79.086,107.76514823096146L79.296,145.84304165840157L79.332,-12.642857142857176L79.746,140.60374995640353L80.01,165.29381602151065L80.184,-12.642857142857176L80.214,57.59527158737185L80.268,-12.642857142857176L80.80799999999999,174.6586185182845L80.826,52.19215311322896L80.994,57.59527158737185L81.054,-12.642857142857176L81.40199999999999,-12.642857142857176L81.61200000000001,47.56129625865393L81.81,57.59527158737185L81.816,-12.642857142857176L82.176,117.02746479851868L82.92,249.57944992610405L82.938,-12.642857142857176L83.274,57.59527158737185L83.42999999999999,127.83340031760086L83.448,165.29381602151065L83.574,145.39285714285722L83.616,71.64277676173623L83.964,40.03566404751371L84,71.64277676173623L84.336,198.0712276186263L84.384,140.60374995640353L85.36200000000001,40.03566404751371L85.404,174.6586185182845L85.56599999999999,52.19215311322896L85.902,71.64277676173623L86.09400000000001,-12.642857142857176L86.47800000000001,127.83340031760086L86.496,-12.642857142857176L86.616,-12.642857142857176L86.658,36.93682112012591L86.81400000000001,36.93682112012591L87.234,165.29381602151065L87.28800000000001,-12.642857142857176L87.33,71.64277676173623L87.408,-12.642857142857176L87.54,172.19413334982747L87.768,43.54746498380391L87.948,141.88090549196525L88.086,-12.642857142857176L88.194,-12.642857142857176L88.614,81.00788068771367L89.064,128.8156073774611L89.304,-12.642857142857176L89.44800000000001,-12.642857142857176L89.838,52.19215311322896L90.30600000000001,63.98044640677319L90.336,198.0713783332281L90.354,81.00788068771367L90.50999999999999,81.00788068771367L91.014,127.83340031760086L91.11600000000001,71.64277676173623L91.542,81.00788068771367L91.662,-12.642857142857176L91.70400000000001,141.88090549196525L92.38199999999999,127.83340031760086L92.39999999999999,71.64277676173623L92.526,47.56129625865393L92.88,-12.642857142857176L92.964,198.0715290478299L93.138,52.19215311322896L93.336,63.98044640677319L93.648,185.67645876748233L93.75,47.56129625865393L93.834,71.64277676173623L93.93,-12.642857142857176L94.54799999999999,-12.642857142857176L94.554,47.56129625865393L94.68599999999999,81.00788068771367L94.896,152.91833863939567L94.956,81.00788068771367L95.05199999999999,270.2740718977794L95.19,234.25478921617798L95.41799999999999,155.92841066632963L95.43599999999999,-12.642857142857176L95.64,-12.642857142857176L95.664,162.9523139681136L95.80199999999999,-12.642857142857176L95.83800000000001,47.56129625865393L95.85,-12.642857142857176L96.08999999999999,251.28222349711845L96.126,92.71418523788456L96.20400000000001,220.7637223516193L96.61800000000001,-12.642857142857176L96.732,174.6586185182845L96.786,-12.642857142857176L97.056,52.19215311322896L97.194,148.90480879374923L97.206,-12.642857142857176L97.212,-12.642857142857176L97.566,43.54746498380391L98.52,86.51680081231258L98.838,-12.642857142857176L98.958,174.6586185182845L99.144,-12.642857142857176L99.19800000000001,47.56129625865393L99.3,198.0712276186263L99.402,57.59527158737185L99.588,293.85065848486784L99.894,-12.642857142857176L100.032,99.73808853966854L100.116,-12.642857142857176L100.56,117.02746479851868L101.244,47.56129625865393L101.82000000000001,-12.642857142857176L102.06599999999999,-12.642857142857176L102.252,140.60374995640353L102.834,40.03566404751371L102.99,-12.642857142857176L103.014,36.93682112012591L103.11,-12.642857142857176L103.746,-12.642857142857176L103.764,52.19215311322896L103.86,-12.642857142857176L104.43599999999999,-12.642857142857176L104.75399999999999,86.51680081231258L105.324,136.09647907529566L106.032,216.13256406784075L106.19999999999999,92.71418523788456L106.554,-12.642857142857176L106.65,52.19215311322896L106.836,120.17106996263783L107.268,-12.642857142857176L107.76,-12.642857142857176L108.10799999999999,107.76514823096146L108.21000000000001,47.56129625865393L108.372,-12.642857142857176L108.68400000000001,-12.642857142857176L108.786,43.54746498380391L109.00200000000001,291.72211616379894L109.242,40.03566404751371L109.44,-12.642857142857176L110.10000000000001,141.88090549196525L110.418,-12.642857142857176L110.442,99.73808853966854L110.562,136.47808844702593L110.856,-12.642857142857176L111.588,-12.642857142857176L111.726,40.035513332911925L112.08,304.3289404596603L112.098,181.86247505460477L112.488,57.59527158737185L112.662,81.00788068771367L112.866,71.64277676173623L113.07600000000001,-12.642857142857176L113.21400000000001,57.59527158737185L113.31,127.83340031760086L113.628,63.98044640677319L113.74799999999999,-12.642857142857176L113.826,81.00788068771367L113.862,248.24140569141952L113.994,107.76514823096146L114.486,-12.642857142857176L115.33200000000001,81.00788068771367L115.72800000000001,81.00788068771367L115.77,-12.642857142857176L115.824,81.00788068771367L115.926,282.35716295242327L115.998,174.6586185182845L116.034,71.64277676173623L116.38799999999999,-12.642857142857176L116.688,57.59527158737185L116.97,92.71418523788456L117.18599999999999,107.76514823096146L117.33,43.54746498380391L117.348,-12.642857142857176L117.798,47.56129625865393L117.834,-12.642857142857176L118.01400000000001,63.98044640677319L118.068,-12.642857142857176L118.686,-12.642857142857176L118.73400000000001,92.71418523788456L118.758,212.11903422219424L118.86,151.24600941794267L119.244,-12.642857142857176L119.706,220.14609391348716L120.168,174.6586185182845L120.546,140.60374995640353L120.822,63.98044640677319L121.086,63.98044640677319L121.2,155.92841066632963L121.602,52.19215311322896L121.95,-12.642857142857176L122.08800000000001,92.71418523788456L122.574,43.54746498380391L122.742,344.93296132768927L122.844,155.92841066632963L122.856,-12.642857142857176L123.048,71.64277676173623L123.23400000000001,-12.642857142857176L123.588,63.98044640677319L124.446,57.59527158737185L124.59,107.76514823096146L124.644,-12.642857142857176L125.088,-12.642857142857176L125.202,155.92841066632963L125.88,63.98044640677319L125.96400000000001,141.88090549196525L126.576,-12.642857142857176L126.702,157.63133495194583L127.134,92.71418523788456L127.5,-12.642857142857176L127.93199999999999,47.56129625865393L128.064,-12.642857142857176L128.166,40.035513332911925L128.44199999999998,370.4739620344982L128.646,127.83340031760086L129.036,99.73808853966854L129.35999999999999,-12.642857142857176L129.516,47.56129625865393L129.546,155.92841066632963L129.972,155.92841066632963L130.188,81.00788068771367L130.482,145.39285714285722L130.85399999999998,52.19215311322896L130.86,63.98044640677319L131.064,107.76514823096146L131.148,57.59527158737185L131.4,-12.642857142857176L132.40200000000002,107.76514823096146L132.588,52.19215311322896L132.792,-12.642857142857176L133.158,120.43979409762798L133.218,-12.642857142857176L133.44,157.54949692317427L133.488,127.83340031760086L133.638,81.00788068771367L133.746,-12.642857142857176L133.758,167.96930163247256L133.89600000000002,234.25463850157615L133.902,71.64277676173623L133.908,-12.642857142857176L134.56199999999998,-12.642857142857176L134.67,134.2185751370022L134.73,71.64277676173623L135.26399999999998,148.26638174057015L135.348,-12.642857142857176L135.46800000000002,-12.642857142857176L135.522,43.54746498380391L135.56400000000002,63.98044640677319L135.57,-12.642857142857176L137.058,240.21434600012657L137.72400000000002,117.02746479851868L137.874,81.00788068771367L137.892,-12.642857142857176L138.11399999999998,-12.642857142857176L138.324,99.73808853966854L138.39600000000002,47.56129625865393L138.63000000000002,-12.642857142857176L139.29,-12.642857142857176L139.42200000000003,140.60374995640353L139.59,117.02746479851868L139.914,71.64277676173623L140.71200000000002,-12.642857142857176L141.288,-12.642857142857176L141.55800000000002,71.64277676173623L142.284,52.19215311322896L142.326,128.8157580920629L143.076,107.76514823096146L143.364,81.00788068771367L143.604,152.91833863939567L143.75400000000002,-12.642857142857176L143.868,-12.642857142857176L143.898,57.59527158737185L144.036,-12.642857142857176L144.16799999999998,52.19215311322896L144.294,71.64277676173623L144.702,71.64277676173623L145.01999999999998,57.59527158737185L145.368,47.56129625865393L145.63199999999998,127.83340031760086L145.656,-12.642857142857176L145.80599999999998,-12.642857142857176L146.916,117.02746479851868L147.006,-12.642857142857176L147.024,-12.642857142857176L147.15599999999998,52.19215311322896L147.19199999999998,92.71418523788456L147.48000000000002,107.76514823096146L147.57,81.00788068771367L147.81,140.60374995640353L147.846,92.71418523788456L147.93,81.00788068771367L147.996,157.3451279231481L148.05,-12.642857142857176L148.32600000000002,63.98044640677319L148.392,-12.642857142857176L148.428,-12.642857142857176L148.782,127.83340031760086L148.94400000000002,47.56129625865393L149.082,-12.642857142857176L149.502,57.59527158737185L149.63400000000001,57.59527158737185L149.832,134.2185751370022L149.934,92.71418523788456L149.976,-12.642857142857176L150.216,71.64277676173623L150.294,81.00788068771367L150.324,63.98044640677319L150.35999999999999,57.59527158737185L150.378,40.035513332911925L150.834,43.54746498380391L150.84,71.64277676173623L150.852,117.02746479851868L151.104,-12.642857142857176L151.122,81.00788068771367L151.308,-12.642857142857176L151.488,-12.642857142857176L151.518,57.59527158737185L151.854,-12.642857142857176L151.944,-12.642857142857176L151.998,63.98044640677319L152.01,81.00788068771367L152.304,127.83340031760086L152.388,198.0712276186263L152.646,71.64277676173623L152.916,-12.642857142857176L153.162,57.59527158737185L153.24,-12.642857142857176L153.36599999999999,363.63272483008274L153.37800000000001,127.83340031760086L153.408,127.83340031760086L153.47400000000002,81.00788068771367L154.14,-12.642857142857176L154.266,36.93682112012591L154.67399999999998,-12.642857142857176L154.68,63.98044640677319L154.698,391.75833024297464L154.93800000000002,-12.642857142857176L154.99200000000002,81.00788068771367L155.136,-12.642857142857176L155.48399999999998,-12.642857142857176L155.7,81.00788068771367L155.928,36.93682112012591L156.168,174.6586185182845L156.21599999999998,-12.642857142857176L156.408,92.71418523788456L156.486,-12.642857142857176L156.86999999999998,52.19215311322896L157.26,-12.642857142857176L157.398,-12.642857142857176L157.90200000000002,124.3214486667089L157.92000000000002,140.60374995640353L157.95,-12.642857142857176L158.35199999999998,128.8156073774611L158.46,165.29366530690885L158.91000000000003,-12.642857142857176L159.14399999999998,63.98044640677319L159.15,-12.642857142857176L160.09199999999998,155.92841066632963L160.344,122.43028184345796L160.35,57.59527158737185L160.74,-12.642857142857176L160.776,71.64277676173623L160.896,534.6669706617087L160.93200000000002,454.7598973682951L161.058,157.54949692317427L161.094,310.8780927658083L161.454,162.9523139681136L161.808,213.12249204090676L162,177.00012057168155L162.042,107.76514823096146L163.326,99.73808853966854L163.476,-12.642857142857176L163.554,142.29416493007125L163.716,71.64277676173623L163.758,268.3093563488553L163.824,-12.642857142857176L163.854,122.43028184345796L163.90200000000002,81.00788068771367L163.986,-12.642857142857176L164.154,268.3093563488553L164.568,174.6586185182845L164.586,71.64277676173623L164.838,212.11903422219424L165.048,40.03566404751371L165.27,92.71418523788456L165.816,92.71418523788456L165.912,107.76514823096146L166.554,155.92841066632963L166.596,-12.642857142857176L166.668,-12.642857142857176L166.974,92.71418523788456L167.04000000000002,-12.642857142857176L167.046,155.92841066632963L167.58599999999998,57.59527158737185L167.60399999999998,-12.642857142857176L168.48600000000002,-12.642857142857176L168.51,136.47808844702593L168.516,-12.642857142857176L168.708,224.8896852902005L168.768,71.64277676173623L168.834,57.59527158737185L168.864,57.59527158737185L168.894,310.45232401575385L168.91799999999998,127.83340031760086L168.95399999999998,324.49997990471996L169.098,193.38882637023937L169.15800000000002,57.59527158737185L169.31400000000002,92.71418523788456L169.326,343.23018775667487L169.584,52.19215311322896L169.722,-12.642857142857176L170.02800000000002,145.84304165840157L170.172,52.19215311322896L170.286,177.00012057168155L170.37,140.60374995640353L170.568,63.98044640677319L171.246,127.83340031760086L171.54,-12.642857142857176L171.906,128.8156073774611L172.026,-12.642857142857176L172.092,127.83340031760086L172.212,71.64277676173623L172.572,47.56129625865393L172.65,-12.642857142857176L172.87199999999999,148.26638174057015L172.992,117.02746479851868L173.058,63.98044640677319L173.574,92.71418523788456L173.63400000000001,141.88090549196525L174.48000000000002,63.98044640677319L174.702,57.59527158737185L174.714,52.19215311322896L174.888,-12.642857142857176L175.698,-12.642857142857176L175.71,162.9523139681136L175.75799999999998,-12.642857142857176L176.502,178.00327696119047L177.078,155.92841066632963L177.348,-12.642857142857176L177.732,-12.642857142857176L178.008,127.83340031760086L178.188,220.7637223516193L178.32,63.98044640677319L178.368,71.64277676173623L179.1,-12.642857142857176L179.28,162.9523139681136L179.412,40.03566404751371L179.61,167.96930163247256L179.78400000000002,145.84304165840157L180.054,-12.642857142857176L180.28799999999998,-12.642857142857176L180.804,92.71418523788456L181.242,63.98044640677319L181.392,57.59527158737185L181.47,63.98044640677319L181.524,-12.642857142857176L182.352,-12.642857142857176L183.036,81.00788068771367L183.126,52.19215311322896L183.438,52.19215311322896L183.60000000000002,155.92841066632963L183.97199999999998,313.964124952044L184.12199999999999,240.21419528552477L184.656,140.60374995640353L184.878,141.21203408922477L185.088,174.6586185182845L185.286,57.59527158737185L185.53199999999998,92.71418523788456L186.18,117.02746479851868L186.276,57.59527158737185L186.402,107.76514823096146L186.456,117.02746479851868L186.552,63.98044640677319L186.93,-12.642857142857176L186.93599999999998,-12.642857142857176L187.02,127.83340031760086L187.68,107.76514823096146L187.758,167.96930163247256L187.82399999999998,92.71418523788456L188.36399999999998,204.45670386723123L188.42399999999998,47.56129625865393L188.826,-12.642857142857176L189.078,148.90480879374923L190.02599999999998,-12.642857142857176L190.53,81.00788068771367L190.542,181.86247505460477L190.782,43.54746498380391L190.788,157.63133495194583L190.79399999999998,255.08806862149933L190.89,117.02746479851868L190.968,-12.642857142857176L192.474,-12.642857142857176L192.858,71.64277676173623L192.89399999999998,47.56129625865393L192.93,-12.642857142857176L192.95399999999998,63.98044640677319L192.96,133.68640187808452L193.41000000000003,107.76514823096146L193.65,127.83340031760086L193.98,-12.642857142857176L194.634,-12.642857142857176L194.70000000000002,81.00788068771367L194.748,-12.642857142857176L195.036,155.92841066632963L195.18,63.98044640677319L195.42,107.76544966016503L195.438,-12.642857142857176L195.624,155.92841066632963L195.684,-12.642857142857176L195.834,-12.642857142857176L196.176,71.64277676173623L196.296,148.90480879374923L196.314,52.19215311322896L196.44,204.45670386723123L196.95600000000002,107.76514823096146L197.50199999999998,-12.642857142857176L197.514,-12.642857142857176L197.70600000000002,63.98044640677319L197.814,155.92841066632963L199.512,-12.642857142857176L200.71200000000002,-12.642857142857176L201.264,43.54746498380391L201.438,-12.642857142857176L201.672,-12.642857142857176L202.062,107.76514823096146L203.352,-12.642857142857176L203.826,107.76514823096146L203.982,172.60045991625117L204.114,-12.642857142857176L204.34799999999998,-12.642857142857176L204.37800000000001,174.6586185182845L204.47400000000002,174.6586185182845L204.546,-12.642857142857176L204.80399999999997,213.12249204090676L205.212,71.64277676173623L205.506,140.60374995640353L205.584,107.76514823096146L205.632,234.17280047280465L205.86,47.56129625865393L206.202,155.92841066632963L206.63400000000001,107.76514823096146L206.832,52.19215311322896L206.874,155.92841066632963L206.928,-12.642857142857176L207.246,-12.642857142857176L207.37199999999999,92.71418523788456L207.444,160.44382013593412L207.55800000000002,92.71418523788456L207.672,71.64277676173623L208.488,92.71418523788456L208.974,174.6586185182845L208.98000000000002,43.54746498380391L209.184,127.83340031760086L209.298,63.98044640677319L209.574,43.54746498380391L210.006,127.83340031760086L210.036,-12.642857142857176L210.46800000000002,-12.642857142857176L210.558,57.59527158737185L210.828,127.83340031760086L211.04999999999998,-12.642857142857176L211.308,81.00788068771367L211.428,81.00788068771367L211.464,107.76514823096146L211.542,-12.642857142857176L211.71,-12.642857142857176L211.96800000000002,127.83340031760086L212.208,40.035513332911925L212.60999999999999,71.64277676173623L212.76000000000002,134.2185751370022L212.80200000000002,196.06461341040486L212.826,40.035513332911925L213.42,71.64277676173623L213.43800000000002,-12.642857142857176L213.57000000000002,-12.642857142857176L213.678,127.83340031760086L213.87,-12.642857142857176L214.428,-12.642857142857176L214.434,174.6586185182845L214.686,140.60374995640353L215.28,-12.642857142857176L218.79,240.21419528552477L219.012,63.98044640677319L219.228,47.56129625865393L219.234,63.98044640677319L219.384,52.19215311322896L219.756,92.71418523788456L219.792,258.2755317347392L219.882,71.64277676173623L220.18200000000002,248.24140569141952L220.33800000000002,165.29366530690885L220.44,52.19215311322896L220.578,43.54746498380391L220.854,-12.642857142857176L221.24400000000003,99.73808853966854L221.286,248.24140569141952L221.334,-12.642857142857176L221.622,81.00788068771367L221.676,172.60045991625117L222.03,192.668410573687L223.05,-12.642857142857176L223.24800000000002,71.64277676173623L223.26,-12.642857142857176L223.49999999999997,92.71418523788456L223.89,47.56129625865393L224.334,-12.642857142857176L224.616,63.98044640677319L224.832,-12.642857142857176L225.006,-12.642857142857176L225.17999999999998,71.64277676173623L225.25799999999998,128.8157580920629L225.27599999999998,-12.642857142857176L226.578,-12.642857142857176L227.256,71.64277676173623L227.37,40.03566404751371L227.412,63.98044640677319L227.418,-12.642857142857176L227.46,57.59527158737185L227.85,-12.642857142857176L227.87400000000002,-12.642857142857176L228.018,122.43028184345796L228.09,-12.642857142857176L228.21,-12.642857142857176L228.696,47.56129625865393L228.894,-12.642857142857176L228.91799999999998,155.92841066632963L229.08,57.59527158737185L229.09199999999998,-12.642857142857176L230.05200000000002,261.0120567594257L230.112,40.03566404751371L230.214,63.98044640677319L230.256,107.76514823096146L230.274,268.30950706345715L230.358,-12.642857142857176L230.42399999999998,57.59527158737185L231.24,-12.642857142857176L232.224,-12.642857142857176L232.374,81.00788068771367L232.428,-12.642857142857176L232.5,-12.642857142857176L232.614,43.54746498380391L232.71599999999998,57.59527158737185L232.806,127.83340031760086L233.04000000000002,216.13256406784075L233.112,198.0712276186263L233.262,63.98044640677319L233.442,261.62019017764516L233.484,-12.642857142857176L233.832,92.71418523788456L233.898,47.56129625865393L234.108,174.6587692328863L234.22199999999998,43.54746498380391L234.264,-12.642857142857176L234.852,-12.642857142857176L234.87,63.98044640677319L235.08,63.98044640677319L235.48800000000003,52.19215311322896L235.638,63.98044640677319L235.84199999999998,-12.642857142857176L235.85999999999999,40.035513332911925L236.172,-12.642857142857176L236.178,-12.642857142857176L236.226,71.64277676173623L236.304,-12.642857142857176L236.634,63.98044640677319L236.79600000000002,167.96930163247256L237.156,117.79942498888295L237.162,117.02746479851868L237.318,-12.642857142857176L237.48,-12.642857142857176L237.6,155.92841066632963L237.654,47.56129625865393L237.708,118.46829639162343L237.888,-12.642857142857176L238.18200000000002,92.71418523788456L238.512,99.73808853966854L238.704,-12.642857142857176L238.836,92.71418523788456L239.04,-12.642857142857176" style="fill: none;" fill="none"></path></g></g></g></g></g></g><g transform="translate(60, 177)" clip-path="url(#clip_1)"><clipPath id="clip_1"><rect width="270" height="23"></rect></clipPath><g><g><line x1="0" y1="0" x2="0" y2="5" style="visibility: inherit;" fill="rgb(0, 0, 0)" stroke="rgb(204, 204, 204)" stroke-width="1px"></line><line x1="30" y1="0" x2="30" y2="5" style="visibility: inherit;" fill="rgb(0, 0, 0)" stroke="rgb(204, 204, 204)" stroke-width="1px"></line><line x1="60" y1="0" x2="60" y2="5" style="visibility: inherit;" fill="rgb(0, 0, 0)" stroke="rgb(204, 204, 204)" stroke-width="1px"></line><line x1="90" y1="0" x2="90" y2="5" style="visibility: inherit;" fill="rgb(0, 0, 0)" stroke="rgb(204, 204, 204)" stroke-width="1px"></line><line x1="120" y1="0" x2="120" y2="5" style="visibility: inherit;" fill="rgb(0, 0, 0)" stroke="rgb(204, 204, 204)" stroke-width="1px"></line><line x1="150" y1="0" x2="150" y2="5" style="visibility: inherit;" fill="rgb(0, 0, 0)" stroke="rgb(204, 204, 204)" stroke-width="1px"></line><line x1="180" y1="0" x2="180" y2="5" style="visibility: inherit;" fill="rgb(0, 0, 0)" stroke="rgb(204, 204, 204)" stroke-width="1px"></line><line x1="210" y1="0" x2="210" y2="5" style="visibility: inherit;" fill="rgb(0, 0, 0)" stroke="rgb(204, 204, 204)" stroke-width="1px"></line><line x1="240" y1="0" x2="240" y2="5" style="visibility: inherit;" fill="rgb(0, 0, 0)" stroke="rgb(204, 204, 204)" stroke-width="1px"></line><line x1="270" y1="0" x2="270" y2="5" style="visibility: inherit;" fill="rgb(0, 0, 0)" stroke="rgb(204, 204, 204)" stroke-width="1px"></line></g><g transform="translate(0, 8)"><text x="0" y="0" dx="0em" dy="0.95em" style="text-anchor: middle; visibility: hidden; font-family: Roboto, sans-serif; font-size: 12px; font-weight: 200;" fill="rgb(33, 33, 33)" stroke="none" stroke-width="1px">-5k</text><text x="30" y="0" dx="0em" dy="0.95em" style="text-anchor: middle; visibility: inherit; font-family: Roboto, sans-serif; font-size: 12px; font-weight: 200;" fill="rgb(33, 33, 33)" stroke="none" stroke-width="1px">0</text><text x="60" y="0" dx="0em" dy="0.95em" style="text-anchor: middle; visibility: inherit; font-family: Roboto, sans-serif; font-size: 12px; font-weight: 200;" fill="rgb(33, 33, 33)" stroke="none" stroke-width="1px">5k</text><text x="90" y="0" dx="0em" dy="0.95em" style="text-anchor: middle; visibility: inherit; font-family: Roboto, sans-serif; font-size: 12px; font-weight: 200;" fill="rgb(33, 33, 33)" stroke="none" stroke-width="1px">10k</text><text x="120" y="0" dx="0em" dy="0.95em" style="text-anchor: middle; visibility: inherit; font-family: Roboto, sans-serif; font-size: 12px; font-weight: 200;" fill="rgb(33, 33, 33)" stroke="none" stroke-width="1px">15k</text><text x="150" y="0" dx="0em" dy="0.95em" style="text-anchor: middle; visibility: inherit; font-family: Roboto, sans-serif; font-size: 12px; font-weight: 200;" fill="rgb(33, 33, 33)" stroke="none" stroke-width="1px">20k</text><text x="180" y="0" dx="0em" dy="0.95em" style="text-anchor: middle; visibility: inherit; font-family: Roboto, sans-serif; font-size: 12px; font-weight: 200;" fill="rgb(33, 33, 33)" stroke="none" stroke-width="1px">25k</text><text x="210" y="0" dx="0em" dy="0.95em" style="text-anchor: middle; visibility: inherit; font-family: Roboto, sans-serif; font-size: 12px; font-weight: 200;" fill="rgb(33, 33, 33)" stroke="none" stroke-width="1px">30k</text><text x="240" y="0" dx="0em" dy="0.95em" style="text-anchor: middle; visibility: inherit; font-family: Roboto, sans-serif; font-size: 12px; font-weight: 200;" fill="rgb(33, 33, 33)" stroke="none" stroke-width="1px">35k</text><text x="270" y="0" dx="0em" dy="0.95em" style="text-anchor: middle; visibility: hidden; font-family: Roboto, sans-serif; font-size: 12px; font-weight: 200;" fill="rgb(33, 33, 33)" stroke="none" stroke-width="1px">40k</text></g><line x1="0" y1="0" x2="270" y2="0" fill="rgb(0, 0, 0)" stroke="rgb(204, 204, 204)" stroke-width="1px"></line></g></g></g></g></svg>