<svg viewBox="0 0 330 200" xmlns="http://www.w3.org/2000/svg"><g><g><g><g><g><line x1="51.5625" y1="177" x2="46.5625" y2="177" style="visibility: inherit;" fill="rgb(0, 0, 0)" stroke="rgb(204, 204, 204)" stroke-width="1px"></line><line x1="51.5625" y1="154.875" x2="46.5625" y2="154.875" style="visibility: inherit;" fill="rgb(0, 0, 0)" stroke="rgb(204, 204, 204)" stroke-width="1px"></line><line x1="51.5625" y1="132.75" x2="46.5625" y2="132.75" style="visibility: inherit;" fill="rgb(0, 0, 0)" stroke="rgb(204, 204, 204)" stroke-width="1px"></line><line x1="51.5625" y1="110.625" x2="46.5625" y2="110.625" style="visibility: inherit;" fill="rgb(0, 0, 0)" stroke="rgb(204, 204, 204)" stroke-width="1px"></line><line x1="51.5625" y1="88.5" x2="46.5625" y2="88.5" style="visibility: inherit;" fill="rgb(0, 0, 0)" stroke="rgb(204, 204, 204)" stroke-width="1px"></line><line x1="51.5625" y1="66.37500000000001" x2="46.5625" y2="66.37500000000001" style="visibility: inherit;" fill="rgb(0, 0, 0)" stroke="rgb(204, 204, 204)" stroke-width="1px"></line><line x1="51.5625" y1="44.25" x2="46.5625" y2="44.25" style="visibility: inherit;" fill="rgb(0, 0, 0)" stroke="rgb(204, 204, 204)" stroke-width="1px"></line><line x1="51.5625" y1="22.12499999999998" x2="46.5625" y2="22.12499999999998" style="visibility: inherit;" fill="rgb(0, 0, 0)" stroke="rgb(204, 204, 204)" stroke-width="1px"></line><line x1="51.5625" y1="0" x2="46.5625" y2="0" style="visibility: inherit;" fill="rgb(0, 0, 0)" stroke="rgb(204, 204, 204)" stroke-width="1px"></line></g><g transform="translate(41.5625, 0)"><text x="0" y="177" dx="0em" dy="0.3em" style="text-anchor: end; visibility: hidden; font-family: Roboto, sans-serif; font-size: 12px; font-weight: 200;" fill="rgb(33, 33, 33)" stroke="none" stroke-width="1px">0.02</text><text x="0" y="154.875" dx="0em" dy="0.3em" style="text-anchor: end; visibility: inherit; font-family: Roboto, sans-serif; font-size: 12px; font-weight: 200;" fill="rgb(33, 33, 33)" stroke="none" stroke-width="1px">0.04</text><text x="0" y="132.75" dx="0em" dy="0.3em" style="text-anchor: end; visibility: hidden; font-family: Roboto, sans-serif; font-size: 12px; font-weight: 200;" fill="rgb(33, 33, 33)" stroke="none" stroke-width="1px">0.06</text><text x="0" y="110.625" dx="0em" dy="0.3em" style="text-anchor: end; visibility: inherit; font-family: Roboto, sans-serif; font-size: 12px; font-weight: 200;" fill="rgb(33, 33, 33)" stroke="none" stroke-width="1px">0.08</text><text x="0" y="88.5" dx="0em" dy="0.3em" style="text-anchor: end; visibility: hidden; font-family: Roboto, sans-serif; font-size: 12px; font-weight: 200;" fill="rgb(33, 33, 33)" stroke="none" stroke-width="1px">0.1</text><text x="0" y="66.37500000000001" dx="0em" dy="0.3em" style="text-anchor: end; visibility: inherit; font-family: Roboto, sans-serif; font-size: 12px; font-weight: 200;" fill="rgb(33, 33, 33)" stroke="none" stroke-width="1px">0.12</text><text x="0" y="44.25" dx="0em" dy="0.3em" style="text-anchor: end; visibility: hidden; font-family: Roboto, sans-serif; font-size: 12px; font-weight: 200;" fill="rgb(33, 33, 33)" stroke="none" stroke-width="1px">0.14</text><text x="0" y="22.12499999999998" dx="0em" dy="0.3em" style="text-anchor: end; visibility: inherit; font-family: Roboto, sans-serif; font-size: 12px; font-weight: 200;" fill="rgb(33, 33, 33)" stroke="none" stroke-width="1px">0.16</text><text x="0" y="0" dx="0em" dy="0.3em" style="text-anchor: end; visibility: hidden; font-family: Roboto, sans-serif; font-size: 12px; font-weight: 200;" fill="rgb(33, 33, 33)" stroke="none" stroke-width="1px">0.18</text></g><line x1="51.5625" y1="0" x2="51.5625" y2="177" fill="rgb(0, 0, 0)" stroke="rgb(204, 204, 204)" stroke-width="1px"></line></g></g><g transform="translate(51, 0)" clip-path="url(#clip_0)"><clipPath id="clip_0"><rect width="278" height="177"></rect></clipPath><g><g><g><line x1="0" y1="0" x2="0" y2="177" fill="rgb(0, 0, 0)" stroke="rgb(66, 66, 66)" stroke-width="1px" opacity="0.25"></line><line x1="30.9375" y1="0" x2="30.9375" y2="177" fill="rgb(0, 0, 0)" stroke="rgb(66, 66, 66)" stroke-width="1px" opacity="0.25"></line><line x1="61.875" y1="0" x2="61.875" y2="177" fill="rgb(0, 0, 0)" stroke="rgb(66, 66, 66)" stroke-width="1px" opacity="0.25"></line><line x1="92.8125" y1="0" x2="92.8125" y2="177" fill="rgb(0, 0, 0)" stroke="rgb(66, 66, 66)" stroke-width="1px" opacity="0.25"></line><line x1="123.75" y1="0" x2="123.75" y2="177" fill="rgb(0, 0, 0)" stroke="rgb(66, 66, 66)" stroke-width="1px" opacity="0.25"></line><line x1="154.6875" y1="0" x2="154.6875" y2="177" fill="rgb(0, 0, 0)" stroke="rgb(66, 66, 66)" stroke-width="1px" opacity="0.25"></line><line x1="185.625" y1="0" x2="185.625" y2="177" fill="rgb(0, 0, 0)" stroke="rgb(66, 66, 66)" stroke-width="1px" opacity="0.25"></line><line x1="216.5625" y1="0" x2="216.5625" y2="177" fill="rgb(0, 0, 0)" stroke="rgb(66, 66, 66)" stroke-width="1px" opacity="0.25"></line><line x1="247.5" y1="0" x2="247.5" y2="177" fill="rgb(0, 0, 0)" stroke="rgb(66, 66, 66)" stroke-width="1px" opacity="0.25"></line><line x1="278.4375" y1="0" x2="278.4375" y2="177" fill="rgb(0, 0, 0)" stroke="rgb(66, 66, 66)" stroke-width="1px" opacity="0.25"></line></g><g><line x1="0" y1="177" x2="278.4375" y2="177" fill="rgb(0, 0, 0)" stroke="rgb(66, 66, 66)" stroke-width="1px" opacity="0.25"></line><line x1="0" y1="154.875" x2="278.4375" y2="154.875" fill="rgb(0, 0, 0)" stroke="rgb(66, 66, 66)" stroke-width="1px" opacity="0.25"></line><line x1="0" y1="132.75" x2="278.4375" y2="132.75" fill="rgb(0, 0, 0)" stroke="rgb(66, 66, 66)" stroke-width="1px" opacity="0.25"></line><line x1="0" y1="110.625" x2="278.4375" y2="110.625" fill="rgb(0, 0, 0)" stroke="rgb(66, 66, 66)" stroke-width="1px" opacity="0.25"></line><line x1="0" y1="88.5" x2="278.4375" y2="88.5" fill="rgb(0, 0, 0)" stroke="rgb(66, 66, 66)" stroke-width="1px" opacity="0.25"></line><line x1="0" y1="66.37500000000001" x2="278.4375" y2="66.37500000000001" fill="rgb(0, 0, 0)" stroke="rgb(66, 66, 66)" stroke-width="1px" opacity="0.25"></line><line x1="0" y1="44.25" x2="278.4375" y2="44.25" fill="rgb(0, 0, 0)" stroke="rgb(66, 66, 66)" stroke-width="1px" opacity="0.25"></line><line x1="0" y1="22.12499999999998" x2="278.4375" y2="22.12499999999998" fill="rgb(0, 0, 0)" stroke="rgb(66, 66, 66)" stroke-width="1px" opacity="0.25"></line><line x1="0" y1="0" x2="278.4375" y2="0" fill="rgb(0, 0, 0)" stroke="rgb(66, 66, 66)" stroke-width="1px" opacity="0.25"></line></g></g></g><g><g><line x1="0" y1="199.125" x2="278.4375" y2="199.125" fill="rgb(0, 0, 0)" stroke="rgb(153, 153, 153)" stroke-width="1.5px"></line></g></g><g><g><line x1="30.9375" y1="0" x2="30.9375" y2="177" fill="rgb(0, 0, 0)" stroke="rgb(153, 153, 153)" stroke-width="1.5px"></line></g></g><g><g><g><g><g><path stroke="rgb(255, 112, 67)" stroke-width="2px" d="M33.548625,-29.0833352748621L33.7899375,25.50862956141875L33.8765625,59.437500484253846L34.2601875,95.27448859548115L34.42725,86.33144768838902L34.52625,65.28616875888375L34.5695625,8.534620573088814L34.8665625,43.193875685343315L34.946999999999996,25.72516329461885L35.033625,69.73267745759115L35.095499999999994,45.908409766819155L35.3615625,89.11806185801784L35.4110625,21.151925296325043L35.71425,61.027965446209386L35.800875000000005,1.9799490147566026L35.9060625,14.466215503798413L35.9431875,24.298119534101815L36.116437499999996,57.84450385017333L36.790875,109.2663199029413L36.95175,-153.55413441868197L37.217812499999994,-34.828602746133974L37.5395625,15.13931808986122L37.7746875,79.07657848360141L38.2449375,84.06023752383263L38.746125,94.93054449909182L39.086437499999995,92.85970594632155L39.105000000000004,122.47890811642381L39.191625,49.85097317074203L39.216375,51.06564335389455L39.513374999999996,89.73672967098257L39.5566875,93.03349750139071L39.8289375,134.72293352343712L40.014562500000004,148.11583318109487L40.367250000000006,149.72312881755988L40.5466875,155.75874276056675L40.6456875,135.25174648939634L40.744687500000005,99.32440074730124L41.091187500000004,111.64991850716314L41.406749999999995,44.88983412253768L41.518125,84.16800636197277L41.5738125,66.76276960010583L41.6604375,85.46593299604788L41.6728125,74.21170453784835L41.691375,103.04826427919608L41.963625,88.78957650615342L42.3534375,97.03637193845917L42.409125,92.75046650443778L42.489562500000005,14.4004023544426L42.508125,24.24517159893739L42.557625,54.058023921309015L42.805125,91.16035214239864L42.9103125,76.04313607617917L42.990750000000006,93.05661520126289L43.324875,29.575732356386258L43.5414375,-71.23934518034656L43.795125,29.370429665682387L43.9126875,72.01581144159297L44.47575,34.946014026255945L44.550000000000004,92.93649501805102L44.62425,118.07277574921903L44.748,139.90297216477398L44.785125,142.16682639041488L44.908875,106.06628806334105L44.939812499999995,124.44463591801446L45.21825,47.5599339755018L45.2925,83.93685981194014L45.5090625,93.35237480214141L45.725625,115.08104010342599L45.7318125,111.4182977068069L46.0164375,137.36993200202392L46.121625,160.70957488214177L46.134,172.91564075511815L46.1649375,112.8455048642285L46.319625,118.93793684939905L46.325812500000005,110.483971848043L46.400062500000004,122.37572346304489L46.431,140.87547915644726L46.610437499999996,106.73916694651413L46.703250000000004,71.86317340213279L46.740375,106.16758269624843L47.557125,94.03617897812686L47.897437499999995,95.37365520780781L48.200624999999995,122.20098827427923L48.8626875,148.76457113599062L49.302,163.4840416409837L49.57425,170.97280956710603L49.7413125,125.10221026930348L49.759874999999994,86.72081841732941L50.11875,100.24173051986625L50.502375,135.91859299288186L50.718937499999996,133.80514516962165L50.9293125,102.09052695204376L51.0159375,94.21100291904543L51.0283125,104.92951984582385L51.0345,121.18417595514977L51.393375,115.59163110294536L52.0306875,108.61648721002697L52.284375,132.7154472494686L52.4761875,122.12165193927673L53.218687499999994,117.73947511194581L53.3300625,104.29150376441142L53.3424375,24.275707648527955L53.6518125,-15.599439211885736L53.998312500000004,49.783836467146536L54.091125,23.503848301219723L54.412875,37.828857199458916L54.542812500000004,73.70507903314153L54.586124999999996,92.17209037492586L55.2481875,99.28330302819559L55.421437499999996,-9.044529932231042L55.5946875,43.41706577838043L55.9164375,19.261468502286526L56.300062499999996,90.21358003387063L56.368125000000006,52.09459512185577L56.906437499999996,41.91122125239087L56.9435625,100.96178363660897L57.09825,62.31313250154213L57.12918749999999,93.19764503502819L57.321,124.58423367240415L57.5746875,123.45206348656646L57.655125000000005,129.78249279444833L57.6675,124.44407185858739L58.1686875,130.15539071863148L58.7379375,78.75607596877369L58.843125,93.31813478719089L58.9730625,129.270589590823L59.5794375,71.80553979769668L59.8021875,93.2321717282851L59.8269375,116.88782939483043L59.8764375,123.92488188509236L60.334312499999996,113.7640522701388L60.5694375,119.94340529265078L60.656062500000004,133.85187471008047L60.891187499999994,123.95606866088953L60.96543749999999,37.24942892555859L61.2253125,71.519562058237L61.646062500000006,117.79921162990439L61.70175,136.07117702099805L61.720312500000006,104.54283163567261L62.1905625,115.74038616155013L62.2029375,62.255575331058644L62.5370625,100.1995287627766L62.7103125,112.3275980895483L63.36000000000001,102.58776995961207L63.916875000000005,95.08997248813117L64.01587500000001,129.14992038506034L64.10249999999999,114.06082599593857L64.47993749999999,134.09446941008363L65.06775,103.93007549011823L65.080125,138.07447036889414L65.278125,144.0219693245722L65.9896875,135.5770793787976L66.0825,140.50012455738127L66.35475,149.7771700660529L66.8806875,133.59642741248862L66.98587500000001,78.95574419895324L67.0044375,109.89428553402135L67.2271875,121.16975506719773L67.2705,111.94534083203568L67.49325,95.74265827757773L67.6231875,81.64781071408187L67.7716875,102.47177480966506L68.0068125,129.54045083577577L68.1305625,92.45030471953838L68.817375,99.26362811862282L68.87925,131.88504550547214L69.188625,131.7047301523585L69.3061875,144.58146036745302L69.386625,133.76831716347453L69.42375,89.77259695558976L69.5041875,111.21526054273087L69.856875,63.94386819440151L69.9991875,74.64714819826499L70.030125,70.78782621704228L70.17862500000001,98.09478626136595L70.3951875,127.41158822244176L70.5436875,139.84933860937218L71.1376875,139.65332720966316L71.2861875,122.75033350387919L71.62031250000001,106.4137686951441L71.79975,135.8253957937126L72.133875,141.31759348012295L72.37518750000001,107.82051272092635L72.39375,138.86141783348245L72.46799999999999,126.50287516624644L72.6598125,142.77976858424938L73.30331249999999,121.24327439029692L73.3528125,36.42220891690061L73.445625,36.999573543225566L74.04581250000001,81.89787526774697L74.20668749999999,98.47302558331664L74.34281250000001,122.15027018857882L74.91206249999999,117.2823928950601L74.9615625,60.79847228129942L75.21525,110.74066781051602L75.5926875,63.57227927921798L75.78450000000001,96.45338943885915L76.18050000000001,118.06584275871307L76.291875,97.54043809613461L76.35374999999999,122.11099863113984L76.3599375,143.02387392800017L76.4775,124.02137797493317L76.61981250000001,117.69932702433216L76.737375,100.258116378642L77.0405625,89.50987463102155L77.1024375,92.30640850308782L77.121,126.35503918993919L77.2138125,89.25150006305246L77.41799999999999,11.421823208278816L78.2409375,61.61941776297775L78.507,87.89791315345339L78.544125,89.69328310220463L78.9586875,78.52650545614377L79.1319375,84.21679696263323L79.1938125,52.47416715217503L79.410375,97.15728204894289L79.8249375,119.37538078694477L80.0229375,139.76304350488L80.38799999999999,143.16350301544435L80.6045625,151.5392120707963L80.74687499999999,137.00959454053248L80.8520625,137.84376295290056L81.5574375,103.83478391696013L81.774,82.54718386399148L81.81112499999999,113.44797511818943L82.2380625,108.26406618683303L82.5103125,102.41909245239952L82.68975,139.91648728908828L82.7206875,129.53742496974309L82.776375,146.9605318220007L83.33324999999999,91.537843102905L83.3518125,102.78869706448488L83.5250625,111.2985805842672L83.5869375,136.10029919696714L83.94581249999999,143.2498043455354L84.16237500000001,115.23742331654859L84.3665625,132.64385656880455L84.37275000000001,148.23953217207415L84.744,100.70970743858233L85.51125,90.74226267390497L85.52981249999999,125.6935334569025L85.8763125,138.0613372558837L86.0371875,66.31975708064347L86.05575,86.75527787078563L86.1856875,72.79421693008631L86.229,101.49406545748704L86.58787500000001,82.78735617482897L86.625,112.44026335475883L86.9715,82.73403268395687L87.021,57.90226405315894L88.02956250000001,98.37488190503892L88.072875,39.471429252159474L88.2399375,87.63918202953451L88.5864375,114.07638374842352L88.78443750000001,124.52832044885842L89.1804375,110.81248863101773L89.199,137.81483870501532L89.32275,152.06090600028017L89.3660625,152.71667733071376L89.5269375,117.27534978182989L89.96006249999999,46.830573410343376L90.01575,98.75550930775032L90.0590625,106.8952703644444L90.1395,131.58725262941329L90.275625,121.91003070554974L90.51075,122.6549480872264L90.69637499999999,117.50340399395886L90.8386875,146.60145552829778L90.9500625,165.1088144095667L91.38318749999999,147.64158646311927L91.84724999999999,97.90242494074445L92.09475,119.96596990110243L92.24325,142.2909232464836L92.6454375,144.76031047365998L93.12806250000001,118.37652378536426L93.15899999999999,126.33613460925021L93.17756250000001,127.953212940197L93.3384375,124.78150476798463L93.8581875,110.69963982349663L93.96337500000001,117.42313737956303L94.4026875,89.09514854423772L94.5264375,124.63776379457155L94.56975000000001,97.13419573683167L95.26893749999999,77.70162141280548L95.2875,96.7364826274346L95.41743749999999,104.0483075043518L95.7825,133.91679421709978L95.844375,102.88311393348575L95.869125,97.13804067098022L96.0485625,113.88022788195562L96.25274999999999,118.47243488179893L96.5745,15.975997444076846L96.6796875,52.96724012409658L96.76631250000001,74.63598141023525L96.8653125,116.92939970258031L96.9705,135.63534342788552L97.218,-50.16834174071021L97.502625,31.343421806548445L97.5088125,75.33424215594198L97.6449375,100.82200776870113L97.86149999999999,104.09130969470773L97.923375,113.0995770190718L98.022375,47.63556163278593L98.0780625,107.30638666195905L98.1646875,35.6834497361972L98.3998125,30.63738637176718L98.418375,88.1104286125381L98.62875,124.03285002867602L98.65350000000001,102.52815387866036L98.7958125,128.4625721683868L98.8329375,111.99967609261084L98.84531249999999,133.3536840823046L99.0928125,97.76561307887741L99.12993750000001,62.900790077331706L99.21037500000001,40.43669387959424L99.24131249999999,46.49012512274377L99.63731250000001,89.3909619096386L99.754875,55.91405132373975L99.8105625,103.83418994485322L100.089,107.67500864767423L100.2313125,113.58802614020343L100.24368750000001,121.09640725423118L100.249875,129.58985035736393L100.6149375,105.32292485084552L101.59875,99.10915250388634L101.9266875,120.72824367542773L102.0504375,97.52079103609746L102.24225000000001,137.46086883898897L102.2979375,46.06381571207241L102.40312499999999,96.43696526386616L102.5083125,116.68038405633438L102.700125,49.07772187385836L103.0156875,90.78389647711147L103.15799999999999,106.88648604554729L103.244625,137.1082464108224L103.7025,51.34446508582562L104.407875,60.03856180024819L105.001875,103.92098691430049L105.0328125,136.3553919655687L105.2555625,149.35146690384187L105.447375,112.5392400620916L106.04756250000001,118.24165459639063L106.20843749999999,148.2134029458406L106.2331875,109.43910808655279L106.3321875,120.6564048136333L106.5920625,140.79392982248572L106.9880625,145.36118354744676L107.006625,144.1559181718347L107.105625,153.63571583994883L107.699625,161.3203213001782L108.02756249999999,77.34630970868434L108.615375,79.8058789049862L109.3455,100.74583428950777L109.51875,119.26610439443094L109.8838125,146.07193250061053L109.98281250000001,129.5155051021336L110.17462499999999,92.70969719848385L110.620125,115.0879800832203L110.7376875,147.30064858938061L111.00375,152.0550972756434L111.12750000000001,154.89702194924286L111.486375,141.95712068078L111.59156250000001,140.4438388956164L111.758625,146.89488610141424L111.8885625,120.94536751963464L111.9628125,66.32804635588987L112.05562499999999,114.01127384977214L112.080375,138.5641972772877L112.1855625,127.87513892815117L112.40831250000001,22.729051515255L112.65581250000001,57.41020804333308L112.86,99.8977138306953L113.540625,108.37737690545661L113.86856250000001,143.63910294487633L113.8933125,118.85777057879899L114.01706250000001,94.78526702924809L114.32025,116.49890952425741L114.4996875,136.5823778096142L114.7595625,153.91449549880937L115.075125,163.18011925440175L115.2174375,161.21055511278593L115.5825,64.64910631860903L115.6010625,17.413968485508025L116.00325000000001,38.28272878418188L116.1826875,83.70434270338608L116.3930625,114.65409155770477L116.60962500000001,135.8530838606318L116.75193750000001,97.22679745212557L116.8509375,92.54069766435242L117.178875,96.29576389138829L117.30262499999999,110.27921992365977L117.3830625,104.10655236959134L117.4201875,67.55132695716426L117.5563125,91.20581318993453L118.0636875,124.2512048966979L118.936125,125.7582753985998L119.34450000000001,130.09654825306694L119.3878125,132.40605650656977L119.4435,119.03990454488134L119.5486875,53.97634594001252L119.6229375,66.50784645889925L119.6600625,93.52018254981775L120.025125,112.85379313557647L120.33449999999999,75.42440482753098L120.6253125,108.78813402706432L120.8480625,102.48588787155776L120.9965625,119.49165263965685L121.01512500000001,137.33903607022737L121.4791875,137.19385392914398L121.5163125,142.97394328497458L121.70193750000001,140.77497668561404L121.757625,144.87728111965694L121.78237499999999,155.7917717499181L121.8195,31.56855868116882L122.38874999999999,79.42151752228064L122.3949375,119.28592397378102L122.4444375,95.93730206850896L122.46918749999999,81.282612634085L122.574375,5.279564271797141L122.970375,76.0802908514392L123.0879375,70.12687996324608L123.29831250000001,109.67787907784707L123.44681250000001,86.2544276953669L123.92325,-79.19058140868358L124.3130625,-5.139759549524864L124.59768749999999,45.31338513402554L124.8699375,75.6363010824228L124.9875,95.83261299181011L125.4020625,117.47940760581508L125.7609375,128.48474123949597L125.90325,134.2636088471847L126.4044375,144.88757153771743L126.5776875,93.2608452479388L126.682875,59.26111378910217L126.69525,98.42201661216956L126.89325,110.21784691600648L127.0850625,140.57423514087438L127.450125,134.1807950755026L128.3349375,126.57615103915728L128.4834375,107.95314902124045L128.539125,142.6269543925918L128.57625000000002,159.64907817378622L128.860875,83.59452810189116L128.8794375,122.08810225587928L128.99699999999999,138.89958125963415L129.1145625,136.23256504752996L129.81375,76.18306339811541L129.900375,88.75354270655667L130.5315,107.05798039298509L130.6614375,110.55993881649526L131.1069375,115.39152553425286L131.484375,137.11848223803074L131.92987499999998,116.81901614649671L132.066,137.24496370331843L132.1711875,116.46959077433587L132.45581249999998,3.6619790501346503L132.6661875,-21.95585835683644L133.068375,12.775514053056824L133.4025,66.93171123854827L133.563375,105.89447563219078L133.5943125,131.01734118228708L134.033625,110.23409616166683L134.256375,111.13413614162404L134.5595625,112.10290973188636L134.9431875,91.47617983104085L134.949375,99.77741048876223L135.15975,100.1348324687408L135.246375,77.4875031021909L135.50625,110.6336726178334L136.53956250000002,111.94638885659612L136.73137499999999,112.98401785852097L136.94174999999998,146.68294967419155L137.3191875,94.06898062799122L137.3810625,127.39679946693776L137.61,20.96675911958814L137.6595,44.70281901756406L137.8141875,67.52498906060744L137.9255625,99.08229243318549L137.9379375,89.40197307950443L138.08025,73.2366994654309L138.0864375,101.48335375101396L138.092625,127.4639884372713L138.1111875,143.58493683856943L138.22875000000002,162.7736074974129L138.4453125,172.45295703606615L138.637125,79.87736529378182L138.76706249999998,104.30397865894787L138.8784375,73.1784767834744L138.9403125,81.48587268313177L139.49099999999999,64.39991449994092L139.577625,114.31568613086488L139.701375,142.39650157920997L139.7570625,146.03667593908298L139.800375,145.05347434229844L139.80656249999998,163.70904612918574L139.986,171.03885509002137L140.047875,140.1293869364436L140.171625,149.50755076173996L140.5985625,92.83723108061585L140.90175,123.39313275922645L140.9079375,144.9164416355822L141.1059375,149.5272570599129L141.3410625,59.036141635418545L142.02787500000002,77.09033932771719L142.18256250000002,96.33342789403463L142.201125,132.84290740645298L142.2568125,159.000126559529L142.4300625,161.7040737593134L142.646625,116.97633093738317L142.720875,104.55559483628726L142.9621875,123.98494912958893L143.116875,3.2579696343943563L143.22206250000002,80.18608218525793L143.6428125,126.11334692615331L143.7789375,108.02077866824307L143.9521875,101.69106203306816L144.2863125,94.41367650472584L145.10925,133.04231886080296L145.11543749999998,143.57170771367186L145.70325,155.129421624135L145.98168750000002,159.27858367567717L146.730375,161.31743176619983L146.7736875,101.23870128596293L147.547125,72.80418093177359L147.844125,82.79048131658244L148.09162500000002,86.34468882607584L148.24631250000002,124.81524467961292L148.363875,151.66013313715933L148.3948125,35.44455277851388L148.537125,94.8586501575629L148.67325,120.01515938622474L148.8031875,122.32865932379794L149.2239375,139.03565021742662L149.551875,140.8681877617644L149.91075,152.03744430480043L150.183,122.72053364671852L150.20775,143.32794406977345L150.3624375,162.37526330653495L151.507125,119.71845932187836L151.5999375,142.91152752362757L151.61849999999998,163.76911867412986L151.75462499999998,143.24202476220168L151.79174999999998,87.57962771372101L152.08875,111.77031112419726L152.1815625,100.73453747008541L152.4290625,105.38219480156481L152.46618750000002,90.17119204589474L152.5528125,121.37976219725607L152.620875,127.49524337856174L152.6765625,154.09561612999298L152.96118750000002,70.06081685600195L153.02925,104.91662002237148L153.066375,119.08041041534547L153.4314375,120.31030460337641L153.5985,126.28462920719292L153.74081249999998,154.54439656187967L154.17393750000002,141.58973810598178L154.31006250000002,144.90723673604384L154.51424999999998,128.2692931516615L154.6194375,140.8829171552448L154.66275,154.40274065232654L154.91025000000002,138.85627689657437L154.9906875,145.3785623133798L155.021625,144.56365102242648L155.05875,119.93943017102013L155.0773125,127.51892578267594L155.54756250000003,130.24816528916978L155.55375,123.60538730746879L155.566125,96.40270882830842L155.82600000000002,115.03037103555097L155.84456250000002,121.51534384886321L156.036375,136.16239818796456L156.2034375,89.25363193818889L156.222,121.56793538496026L156.2529375,111.06206624740439L156.59943750000002,145.27804832828053L156.69225,164.33178467894984L156.7479375,141.34347134736416L156.7603125,116.10846344624304L157.0635,114.55332882251946L157.150125,102.9507798912919L157.41618749999998,113.82522838303724L157.69462499999997,135.83596010350752L157.94831250000001,134.63869624901454L158.02875,149.5606839204573L158.03493749999998,159.74520587126125L158.15868749999998,6.919282672999538L158.1710625,50.82496652421252L158.202,85.21145654643712L158.27006250000002,101.54331319809042L158.956875,129.21910339835335L159.08681249999998,115.23097717087299L159.50756249999998,127.02781724450487L159.51375,132.0978581008613L159.5323125,-17.020882532161476L159.5385,50.362633203991074L159.77981250000002,94.49589931810068L159.8355,115.75802409854039L159.98399999999998,140.05990382239372L160.1881875,150.39837322785795L160.342875,167.8557509352805L160.565625,135.7030771192933L160.80075,124.10412366566212L161.04825,93.39555392788141L161.09775,125.38830267582858L161.29575,124.37803770941213L161.3761875,152.4716384238442L161.7721875,129.9326179468L162.174375,122.45791908015991L162.3166875,129.76885201355927L162.83643750000002,99.20224226755569L162.855,102.00191622223062L162.88593749999998,134.2972344925365L163.3005,-59.29766700146431L163.411875,11.745416583997963L163.87593750000002,78.57419695009023L164.11724999999998,97.59171734854121L164.1234375,131.6165514825555L165.094875,128.83444575227932L165.35475,56.82833316479704L165.3609375,72.47125158640493L165.763125,103.36539868374318L165.80025,115.68152960790484L165.92399999999998,11.666058752854404L165.961125,-107.39478531842248L168.4299375,-60.71918845240262L168.58462500000002,30.460018781191174L168.6650625,57.23664307660823L168.832125,77.19439553434827L168.8754375,44.6812884134959L168.9435,87.21896474572485L168.9744375,76.14384380884448L169.02393750000002,88.3619074935167L169.1105625,107.65476630639725L169.28381249999998,63.629989068279826L169.71075,54.41328744922289L169.7293125,69.1065972959054L169.9891875,23.336630258861305L170.20575,45.39328888589332L170.43468750000002,75.92442447787042L170.99775,75.52669401896306L171.09675,52.94235389639326L171.7588125,64.40368623038759L171.80212500000002,100.56721187830347L171.876375,128.71862496871728L172.1919375,46.596156037980194L172.26000000000002,104.67033894799249L172.2661875,91.56088135953004L172.8230625,100.58615158909713L172.841625,114.0055264974484L173.75118750000001,135.95516786637748L173.7759375,33.41831281580237L173.782125,95.56513958033672L173.8873125,114.63616997178944L173.980125,71.46422656879753L174.042,92.52270699817495L174.1100625,109.34164060818291L174.141,115.19496787066541L174.1719375,58.128621794136066L174.1966875,66.03956810823183L174.2338125,40.51214187557163L174.3823125,46.34870468506014L174.4441875,70.01493922131536L174.6050625,67.4792227052586L174.6174375,28.782960067864458L174.8835,41.5781843547083L175.0258125,94.5928653200899L175.341375,72.49956020089594L175.48987499999998,73.94710999651318L175.6074375,50.451003370723534L175.6940625,54.66770305367794L175.89825000000002,67.8833589293509L176.5974375,58.126273363110386L176.900625,82.2774289655846L177.2780625,-478.7414101953409L177.469875,-80.03922166221955L177.59362499999997,13.605665952079788L177.964875,68.18714560686846L178.04531250000002,107.52075717781068L178.27425,91.29572967028066L178.398,69.45325391492516L178.4660625,95.0578222762869L178.9981875,103.67004426889577L179.06006250000002,74.53573776229L179.9325,78.82480141934023L180.1614375,98.62124304572501L180.17381250000003,112.11622530355906L180.35325,137.2166993292636L180.5945625,157.91815351856673L180.8915625,165.5713362737025L181.18856250000002,161.00249192601595L181.2009375,138.4050842850575L181.25043749999998,152.6093567323562L181.4360625,132.35368441414096L181.578375,144.2883272666261L181.66500000000002,165.07548364094052L182.0176875,116.76442502344342L182.6116875,87.93956784847195L182.890125,127.7443478970174L182.91487500000002,150.23986782327333L183.286125,160.32999285035604L183.57075,127.72110918595358L183.756375,114.94786015337088L183.89249999999998,120.39710029697645L183.942,89.44494747362272L184.696875,123.31946915047905L184.88250000000002,86.08737759833063L185.01862500000001,105.73058399286585L185.2228125,103.53310628519486L185.40225,61.442852498805706L185.6806875,92.9212711191721L185.922,122.56561608569606L186.454125,137.17388218913547L186.9058125,130.6447649018411L187.0605,131.01764894896414L187.1409375,129.90334974303047L187.19662499999998,154.66310693386467L187.6854375,170.41286297459615L188.0505,179.4906424574023L188.755875,165.77920558441969L188.84868749999998,161.43450268813544L189.1704375,161.09892762762948L189.3375,38.28852068521167L189.721125,11.855851993784825L189.8758125,26.549523666993103L190.4265,28.461020721790394L190.6554375,59.90682751241162L190.87199999999999,65.32357736261389L191.0761875,77.04330372263016L191.329875,102.55751394785358L191.99812500000002,95.51765951920694L192.097125,119.7747662713924L192.2270625,125.9472899556636L192.28275,95.74784650328633L192.38174999999998,97.13914078726098L192.77156250000002,136.4283580448468L192.77775,151.45728134460683L192.864375,130.77745057551525L193.54500000000002,132.70442599711393L193.6254375,78.33160666321264L193.6935,89.56439660009472L194.250375,71.42878001938301L194.31224999999998,99.14572101837418L194.7268125,122.06632641929997L194.9866875,104.1919849893666L195.9643125,130.81608546599549L196.4840625,109.0532633212197L196.49643749999998,58.965516578971624L196.74393750000002,95.19944714975016L196.75012500000003,90.9758004708389L196.75631249999998,69.50580634554025L196.8553125,83.80126689749837L196.93574999999998,125.05945020571205L196.948125,153.70650010997528L197.5606875,165.10088229537442L198.4888125,172.0002801171567L198.88481249999998,164.22118461924052L198.92193749999998,109.12545072762522L198.95906250000002,135.79223457450183L198.9838125,132.07105126589246L198.99,96.91190355634514L199.45406250000002,100.61230007255568L199.7015625,120.58004235815702L200.041875,139.30496575626253L200.7163125,145.38971714268638L200.784375,147.02699569703944L200.833875,144.9270815530676L201.130875,48.19816792185656L201.27937500000002,89.95562199905845L201.526875,93.25841489079791L201.5454375,135.3731532407554L201.73725000000002,52.009057635828974L201.799125,102.66179533940709L201.8424375,132.15360596897992L201.9538125,144.7237883176523L202.3065,142.83280314712928L202.43025,-2.562215189878942L202.4488125,41.560081760141394L202.57874999999999,-12.190998533336426L203.11087500000002,31.73876078860872L203.6739375,79.24602154828261L203.6863125,115.5409437602365L203.88431250000002,82.56894877318166L203.9956875,98.01773859047071L205.74675,126.25439448532865L205.907625,113.77018553690556L206.17987499999998,144.97673127355915L206.5201875,4.756446524278733L206.90381250000002,81.19629982080544L206.98425,116.13626144787811L207.55349999999999,-44.66471385084907L207.7329375,32.93439484239629L207.97425,79.52418312974878L208.3764375,108.9524035613126L209.70675,122.55839107471029L210.1955625,129.87215787082803L210.3564375,42.57188179439243L210.4925625,89.43670894672535L210.61012499999998,125.12039392703063L210.73387499999998,136.20693763576918L210.7648125,118.48089476739153L210.86381250000002,89.20140511879197L210.9380625,127.14405886174066L211.0370625,144.79042018799228L211.20412499999998,140.90118589236286L211.624875,141.50720292506486L211.9280625,112.47012522848169L212.0085,80.02181508261991L212.05800000000002,57.014799950236274L212.293125,92.88275726860117L212.6458125,40.27471937820523L213.09131250000002,53.22126421085126L213.2955,42.6367154970832L213.3388125,34.093302639130755L213.3945,56.07300147298217L213.703875,54.500729896922344L213.7224375,96.08603094603089L213.852375,110.15581984906177L213.92662499999997,86.02775555007923L214.04418750000002,59.51531985493461L214.16175,55.32152822221496L215.00324999999998,84.09929263728962L215.5044375,53.17316998325651L215.510625,67.02877653484263L215.721,17.64895214494894L215.8385625,50.94250710893769L216.1231875,90.37225283027648L216.5686875,81.58989822248198L216.599625,122.76955457081021L216.7605,91.2324617388822L217.045125,118.18604093688592L217.1379375,129.15661543770352L217.416375,126.66213980563712L217.6453125,150.22228447495837L217.911375,142.64103534086908L218.035125,131.9735137001536L218.07225,110.63834323888192L218.1526875,138.3462392173643L218.32593749999998,138.65538654483467L218.592,118.29195890132853L218.8395,116.47158541786234L219.25406249999997,135.32610023771264L219.40875,111.31305240469895L219.4520625,101.53959456460312L219.4768125,110.48289132044694L220.089375,97.09638637483705L220.10793750000002,136.4129075984757L220.2440625,150.1860668833912L220.3554375,84.07114926581744L220.5534375,120.76687634147056L220.9370625,141.71261908542724L221.0236875,113.6244186963535L221.128875,143.22121747376153L221.1350625,123.33198539266961L221.3949375,-11.460092464983601L222.0075,70.75890265839539L222.1745625,111.65357808992115L223.0779375,132.00141629040152L223.405875,154.9030207801083L224.074125,156.13043656286416L224.1421875,69.7609629889537L224.90324999999999,112.6169527674591L225.2683125,125.75864408939334L225.49724999999998,151.97195021862836L225.6271875,91.52243589642676L225.856125,117.3812207536878L226.07887499999998,134.74374284674118L226.0850625,112.56756442758078L226.23975,116.53584708704138L226.623375,134.20644119305064L226.6605,85.55485060168891L226.7533125,79.09459807338469L227.0626875,68.55784833796115L227.2235625,-27.578511390881026L227.32874999999999,38.53329940435512L227.4710625,82.45253108805255L227.7556875,126.42953626899174L228.15787500000002,130.60993989013582L228.2011875,44.142902247327264L228.2506875,84.41679158901734L228.5476875,115.4663037115816L228.603375,113.6586581322243L228.96843750000002,120.86144779750349L229.048875,150.6881359542937L229.9460625,159.19886606227047L230.02031250000002,167.95818252606355L230.2245,153.21804265338577L230.236875,167.85286194376064L230.48437499999997,121.70654815609404L230.8865625,126.75518017031344L231.3444375,151.87135242960656L231.63525,146.4104036467779L231.85799999999998,161.0969226855417L232.03743749999998,156.29592708749354L232.216875,114.53569090219008L232.2973125,120.16532376320163L232.31587499999998,147.14322562378868L232.72425,165.3568439967169L232.7428125,159.67580857868396L233.008875,163.92267076556624L233.25018749999998,163.80059890752875L233.3120625,162.15789329033103L233.330625,170.92154495384025L233.65856250000002,171.43148625770647L234.35775,132.65920639860295L234.4753125,147.60840518017955L234.51862500000001,135.3681558474323L234.5248125,146.2929734906954L234.568125,114.40014974975006L234.9703125,144.03109495900745L234.99506250000002,146.11260437406702L235.1435625,-45.1339826736593L235.21781249999998,42.44110533814918L235.29825,91.97350289357479L235.3415625,127.29757227056638L235.84275,119.67296600895175L236.0469375,134.9769149489376L236.0716875,135.79808187177318L236.23875,133.29533897006834L236.251125,150.58404915915028L236.66568750000002,132.27323057807143L236.70281250000002,148.92001510780548L236.808,152.7151255801111L237.241125,57.23226798443732L237.303,78.0319116003438L237.4081875,64.15654902977492L237.4515,93.44577374650686L237.4700625,74.00898695941954L237.5566875,114.17625502377713L237.62475,121.76455287042239L238.46625,142.69926882831294L238.69518749999997,158.32155492502025L239.03549999999998,90.54397227226241L239.0788125,106.36615948331979L239.481,142.0407271316711L239.6356875,122.53515342361116L239.691375,146.28866231191236L239.765625,152.5783568642919L239.88318750000002,146.1775509296289L239.988375,135.1207566255886L240.0811875,139.41002129507413L240.32250000000002,98.849000307872L240.39675,82.84939763722068L240.5514375,101.23607535229473L240.7370625,79.56501130352227L240.78037500000002,112.83767446854597L241.13924999999998,110.10880118372371L241.2073125,108.27791068188745L241.423875,98.43465755720376L241.5414375,110.32650728875066L241.58474999999999,124.50066442104378L241.86937500000002,84.77840302921652L242.017875,114.82964685581517L242.19112500000003,135.09365315562422L242.2096875,142.62112307519277L242.42625,139.1451176168505L242.847,90.85498526316783L243.0016875,100.40019383577646L243.2120625,125.19231341509902L243.230625,56.570753805213485L243.552375,104.59888728532842L243.55856250000002,123.42466811171859L243.6080625,120.50462963108235L243.6885,146.0156848294788L244.0288125,123.33953691501935L244.195875,87.18414515691711L244.567125,71.00776723437139L244.57331250000001,76.31072175376195L244.73418750000002,117.66231296731577L244.8084375,145.2341029854032L244.90125,151.48554139726835L245.025,134.4328125187366L245.08068749999998,121.41768372914844L245.136375,98.67258736632259L245.322,133.24533992596787L245.6251875,51.43046461098386L245.96550000000002,49.145756484884L246.1635,97.55232623551368L246.299625,110.51524190803813L246.51,145.67493285468814" style="fill: none;" fill="none"></path></g></g></g></g><g opacity="0.2"><g><g><g><path stroke="rgb(255, 112, 67)" stroke-width="2px" d="M32.632875,-159.38321435451505L32.8494375,77.3535125926137L32.8618125,-154.90522449463603L32.9113125,152.55674077570438L33.548625,-52.053850047290325L33.7899375,107.33240601047873L33.8765625,110.30687760002911L34.2601875,149.01480574999005L34.42725,72.91915696486831L34.52625,33.72145640105009L34.5695625,-76.5875143893063L34.8665625,95.18085755780339L34.946999999999996,-0.4773304760456085L35.033625,135.74307985045016L35.095499999999994,10.172290451824665L35.3615625,153.93223287910223L35.4110625,-80.79698970168829L35.71425,120.84192363917828L35.800875000000005,-86.59198497980833L35.9060625,33.19560373574495L35.9431875,39.045970145612955L36.116437499999996,108.1640691999346L36.790875,186.39903375087306L36.95175,-547.7847845256329L37.217812499999994,143.2596862586215L37.5395625,90.0911971963942L37.7746875,174.98246742552146L38.2449375,91.53572600707412L38.746125,111.2360048610717L39.086437499999995,89.75344812870026L39.105000000000004,166.9077112725936L39.191625,-59.090929102152586L39.216375,52.88764862716198L39.513374999999996,147.74335911870003L39.5566875,97.97864924557507L39.8289375,197.25708754567313L40.014562500000004,168.20518266549334L40.367250000000006,152.134072272107L40.5466875,164.81216367473826L40.6456875,104.49125208333135L40.744687500000005,45.433382134884596L41.091187500000004,130.13819514680654L41.406749999999995,-55.25029245391488L41.518125,143.085264720954L41.5738125,40.65491445735097L41.6604375,113.52067808993161L41.6728125,57.33036185055971L41.691375,146.30310389120132L41.963625,67.40154484659433L42.3534375,109.40656508691609L42.409125,86.32160835340619L42.489562500000005,-103.12469387054439L42.508125,39.01232546567917L42.557625,98.77730240486562L42.805125,146.81384447403252L42.9103125,53.36731197685003L42.990750000000006,118.57683388888836L43.324875,-65.64559191092849L43.795125,180.28509193472564L43.9126875,135.98388410545886L44.47575,-20.658682096749544L44.550000000000004,179.92221650574356L44.62425,155.77719684597105L44.748,172.6482667881064L44.785125,145.56260772887617L44.908875,51.9154805727303L44.939812499999995,152.01215770002455L45.21825,-67.76711893826723L45.2925,138.5022485665977L45.5090625,107.47564728744328L45.725625,147.67403805535287L45.7318125,105.92418411187828L46.0164375,176.2973834448494L46.121625,195.71903920231853L46.134,191.2247395645827L46.1649375,22.74030102789402L46.319625,128.07658482715487L46.325812500000005,97.8030243460089L46.400062500000004,140.2133508855477L46.431,168.6251126965508L46.610437499999996,55.53469863161445L46.703250000000004,19.5491830855608L46.740375,157.62419663742185L47.557125,75.83907340094447L47.897437499999995,97.37986955232918L48.200624999999995,162.44198787398636L48.8626875,188.6099454285577L49.57425,182.20596145628951L49.7413125,56.29631132259965L49.759874999999994,29.148730639368296L50.11875,120.52309867367148L50.502375,189.4338867024053L50.718937499999996,130.63497343473136L50.9293125,54.51859962567687L51.0159375,82.39171686954796L51.0283125,121.00729523599148L51.0345,145.56616011913866L51.393375,107.20281382463872L52.0306875,98.15377137064934L52.284375,168.8638873086311L52.4761875,106.23095897398889L53.218687499999994,111.16620987094939L53.3300625,84.11954674310982L53.3424375,-95.74798652529716L53.6518125,-75.41215950250626L53.998312500000004,147.85874998569489L54.091125,-15.91613394767046L54.412875,59.31637054681778L54.542812500000004,127.51941178366542L54.586124999999996,119.87260738760233L55.2481875,109.95012200810015L55.421437499999996,-171.5362793728709L55.5946875,122.10945934429765L55.9164375,-16.971927411854267L56.368125000000006,-5.083882246166468L56.906437499999996,26.63616044819355L56.9435625,189.53762721293606L57.09825,4.340155798941851L57.12918749999999,139.5244138352573L57.321,171.66411662846804L57.5746875,121.75380820780993L57.655125000000005,139.27813675627112L57.6675,116.43644045479596L58.1686875,138.72236900869757L58.7379375,1.657103843986988L58.843125,115.16122301481664L58.9730625,183.1992717962712L59.5794375,-14.392034891992807L59.8021875,125.37211962416768L59.8269375,152.37131589464843L59.8764375,134.48046062048525L60.334312499999996,98.52280784770846L60.5694375,129.21243482641876L60.656062500000004,154.71457883622497L60.891187499999994,109.11235958710313L60.96543749999999,-92.81053067743778L61.2253125,122.9247617572546L61.646062500000006,187.21868598740548L61.70175,163.47912510763854L61.720312500000006,57.25031355768442L62.1905625,132.53671795036644L62.2029375,-17.971640914678574L62.5370625,157.11545891035348L62.7103125,130.5197020797059L63.36000000000001,87.9780277647078L63.916875000000005,83.84327628090978L64.01587500000001,180.2398422304541L64.10249999999999,91.42718441225588L64.47993749999999,164.14493453130126L65.06775,58.683484610170126L65.080125,189.291062687058L65.278125,152.9432177580893L65.9896875,122.9097444601357L66.0825,147.88469232525676L66.35475,163.69273832906038L66.8806875,109.32531343214214L66.98587500000001,-3.0052806213498116L67.0044375,156.30209753662348L67.2271875,138.0829593669623L67.2705,98.10871947929263L67.49325,71.43863444589078L67.6231875,60.50553936883807L67.7716875,133.70772095303982L68.0068125,170.14346487494186L68.1305625,36.81508554518223L68.817375,109.48361321724951L68.87925,180.8171715857461L69.188625,131.434257122688L69.3061875,163.89655569009483L69.386625,117.54860235750675L69.42375,23.77901664376259L69.5041875,143.37925592344254L69.856875,-6.963220328092575L69.9991875,90.7020682040602L70.030125,64.99884324520826L70.17862500000001,139.05522632785141L70.3951875,171.38679116405547L70.5436875,158.50596418976784L71.1376875,139.3593101100996L71.2861875,97.39584294520319L71.62031250000001,81.90892148204148L71.79975,179.9428364415653L72.133875,149.5558900097385L72.37518750000001,57.574891582131386L72.39375,185.42277550231665L72.46799999999999,107.9650611653924L72.6598125,167.19510871125385L73.30331249999999,88.93853309936821L73.3528125,-90.80938929319382L73.445625,37.865620482712984L74.04581250000001,149.24532785452902L74.20668749999999,123.33575105667114L74.34281250000001,157.66613709647208L74.91206249999999,109.98057695478201L74.9615625,-23.927408639341593L75.5926875,-7.180303517729044L75.78450000000001,145.77505467832088L76.18050000000001,150.48452273849398L76.291875,66.75233110226691L76.35374999999999,158.9668394336477L76.3599375,174.3931868732907L76.4775,95.51763404533267L76.61981250000001,108.21625059843063L76.737375,74.09630041010678L77.0405625,73.38751200959086L77.1024375,96.50120931118727L77.121,177.42798522021621L77.2138125,33.59619137272239L77.41799999999999,-105.32269207388158L78.2409375,136.91580959502608L78.507,127.31565623916686L78.544125,92.3863380253315L78.9586875,61.77633898705244L79.1319375,92.7522342223674L79.1938125,4.860222436487675L79.410375,164.18195439409465L79.8249375,152.7025288939476L80.0229375,170.3445375817828L80.38799999999999,148.2641922812909L80.6045625,164.1027756538242L80.74687499999999,115.21516824513674L80.8520625,139.09501557145268L81.5574375,52.82131536304951L81.774,50.61578378453851L81.81112499999999,159.7991619994864L82.2380625,100.48820278979838L82.5103125,93.65163185074925L82.68975,196.1625795441214L82.7206875,113.96883149072528L82.776375,173.09519210038707L83.33324999999999,8.403810024261475L83.3518125,119.66497800685465L83.5250625,124.06340586394072L83.5869375,173.30287711601704L83.94581249999999,153.97406206838787L84.16237500000001,73.21885177306831L84.3665625,158.75350644718856L84.37275000000001,171.63304557697847L84.744,29.414970338344574L85.51125,75.79109552688897L85.52981249999999,178.12043963139877L85.8763125,156.61304295435548L86.0371875,-41.29261318221688L86.05575,117.40855905599892L86.1856875,51.85262551903725L86.229,144.54383824858814L86.58787500000001,54.727292250841856L86.625,156.91962412465364L86.9715,38.174686677753925L87.021,20.654611106961966L88.02956250000001,159.08380868285894L88.072875,-48.88374972715974L88.2399375,159.89081119559705L88.5864375,153.73218632675707L88.78443750000001,140.20622549951077L89.1804375,90.2387409042567L89.199,178.3183638160117L89.32275,173.43000694317743L89.3660625,153.7003343263641L89.5269375,64.11335845850408L89.96006249999999,-58.83659114688635L90.01575,176.64291315386072L90.0590625,119.10491194948554L90.1395,168.62522602686659L90.275625,107.39419781975448L90.51075,123.7723241597414L90.69637499999999,109.77608785405755L90.8386875,190.2485328298062L90.9500625,192.86985273147002L91.38318749999999,121.44074454344809L91.84724999999999,23.293682657182217L92.09475,153.0612873416394L92.24325,175.77835326455534L92.6454375,148.46439131442457L93.12806250000001,78.80084375292063L93.15899999999999,138.27555084507912L93.17756250000001,130.37883043661714L93.3384375,120.02394250966609L93.8581875,89.57684240676463L93.96337500000001,127.50838371366262L94.4026875,46.60316529124975L94.5264375,177.95168667007238L94.56975000000001,55.878843650221825L95.26893749999999,48.55275992676616L95.2875,125.28877444937825L95.41743749999999,115.01604481972754L95.7825,178.7195242862217L95.844375,56.33259350806475L95.869125,88.52043077722192L96.0485625,138.99350869841874L96.25274999999999,125.3607453815639L96.5745,-137.76865871250627L96.6796875,108.45410414412618L96.76631250000001,107.1390933394432L96.8653125,180.36952714109793L96.9705,163.69425901584327L97.218,-328.8738694936037L97.502625,153.6110671274364L97.5088125,141.32047268003225L97.6449375,139.0536561878398L97.86149999999999,108.9952625837177L97.923375,126.61197800561786L98.022375,-50.560461446642876L98.1646875,-71.75095565244555L98.3998125,23.068291325122118L98.418375,174.3199919736944L98.62875,177.91648215288296L98.65350000000001,70.27110965363681L98.7958125,167.36419960297644L98.8329375,87.30533197894692L98.84531249999999,165.3846960668452L99.0928125,44.38350657373667L99.12993750000001,10.60355557501316L99.21037500000001,6.740549582988024L99.24131249999999,55.570271987468004L99.63731250000001,153.74221708998084L99.754875,5.698685444891453L99.8105625,175.71439787652344L100.089,113.43623670190573L100.2313125,122.4575523789972L100.24368750000001,132.35897892527282L100.249875,142.3300150120631L100.6149375,68.92253659106791L101.59875,89.78849398344755L101.9266875,153.15688043273985L102.0504375,62.709612077102065L102.24225000000001,197.37098554332624L102.2979375,-91.03176397830248L102.40312499999999,171.9966895915568L102.5083125,147.04551224503666L102.700125,-52.326271399855614L103.0156875,153.3431583819911L103.15799999999999,131.04037039820105L103.244625,182.44088695873506L103.7025,-77.3012069016695L104.407875,73.07970687188208L105.001875,169.74462458537892L105.0328125,185.00699954247102L105.2555625,168.84557931125164L105.447375,57.32089979946613L106.04756250000001,126.79527639783919L106.20843749999999,193.1710254700156L106.2331875,51.27766579762101L106.3321875,137.48234990425408L106.5920625,171.00021733576432L106.9880625,152.21206413488835L107.006625,142.34802010841668L107.105625,167.85541234211996L107.699625,172.8472294905223L108.02756249999999,-48.61470767855644L108.615375,83.49523269943893L109.3455,132.1557673662901L109.51875,147.0465095518157L109.8838125,186.28067465987988L109.98281250000001,104.68086400441825L110.17462499999999,37.50098534300923L110.620125,148.655404410325L110.7376875,195.61965134862112L111.00375,159.1867703050375L111.12750000000001,159.15990895964205L111.486375,122.54726877808571L111.59156250000001,138.173916217871L111.758625,156.571456910111L111.8885625,82.02108964696527L111.9628125,-15.597935389727354L112.05562499999999,185.53611509059556L112.080375,175.39358241856098L112.1855625,111.84155140444636L112.40831250000001,-134.99007960408923L112.65581250000001,109.43194283545017L112.86,163.62897251173854L113.540625,121.09687151759863L113.86856250000001,196.5316920040059L113.8933125,81.685772029683L114.01706250000001,58.67651170492172L114.32025,149.06937326677144L114.4996875,166.70758023764938L114.7595625,179.91267203260213L115.075125,177.07855488779023L115.2174375,158.25620890036225L115.5825,-80.19306687265635L115.6010625,-53.43873826414347L116.00325000000001,69.58586923219264L116.1826875,151.83676358219236L116.3930625,161.0787148391828L116.60962500000001,167.65157231502235L116.75193750000001,39.2873678393662L116.8509375,85.51154798269272L117.178875,101.92836323194206L117.30262499999999,131.25440397206694L117.3830625,94.84755103848875L117.4201875,12.718488838523626L117.5563125,126.68754253908992L118.0636875,173.81929245684296L118.936125,128.01888115145266L119.34450000000001,136.6039575347677L119.3878125,135.87031888682395L119.4435,98.99067660234869L119.5486875,-43.61899196729064L119.6229375,85.30509723722935L119.6600625,134.03868668619543L120.025125,141.85420901421458L120.33449999999999,19.28032236546278L120.6253125,158.83372782636434L120.8480625,93.03251863829792L120.9965625,145.00029979180545L121.01512500000001,164.11011121608317L121.4791875,136.97608071751893L121.5163125,151.64407731872052L121.70193750000001,137.47652678657323L121.757625,151.03073777072132L121.78237499999999,172.16350769530982L121.8195,-154.76626092195508L122.38874999999999,151.2009557839483L122.3949375,179.08253365103155L122.4444375,60.91436921060085L122.46918749999999,59.300578482449055L122.574375,-108.72500827163454L122.970375,182.28138072090223L123.0879375,61.19676363095641L123.29831250000001,169.00437774974853L123.44681250000001,51.11925062164664L123.92325,-327.35809506475925L124.3130625,105.93647323921323L124.59768749999999,120.99310215935111L124.8699375,121.12067500501871L124.9875,126.12708085589111L125.4020625,149.94959952682257L125.7609375,144.99274169001728L125.90325,142.93191025871783L126.4044375,160.8235155735165L126.5776875,15.820755813270807L126.682875,8.261516600847244L126.69525,157.1633708467707L126.89325,127.9115923717618L127.0850625,186.1088174781762L127.450125,124.590634977445L128.3349375,115.16918498463929L128.4834375,80.01864599436522L128.539125,194.6376624496188L128.8794375,179.82846348686144L128.99699999999999,164.11679976526648L129.1145625,132.2320407293737L129.81375,-13.891189076006413L129.900375,107.60926166921854L130.5315,134.5146369226277L130.6614375,115.81287645176053L131.1069375,122.6389056108892L131.484375,169.7089172936976L131.92987499999998,86.36981700919569L132.066,167.88388503855094L132.1711875,85.306531380862L132.45581249999998,-165.54943853616712L132.6661875,-60.382614467293024L133.068375,64.87257266789675L133.4025,148.16600701678544L133.563375,164.33862222265452L133.5943125,168.70163950743154L134.033625,79.05922863073647L134.256375,112.48419611155987L134.5595625,113.55607011727989L134.9431875,60.53608497977257L134.949375,112.2292564753443L135.15975,100.67096543870866L135.246375,43.51650905236602L135.50625,160.3529268912971L136.53956250000002,113.91546321474016L136.73137499999999,114.54046136140823L136.94174999999998,197.2313473976974L137.3191875,15.148027058690786L137.3810625,177.38852772535756L137.61,-138.6783014014363L137.6595,80.30690886452794L137.8141875,101.7582441251725L137.9255625,146.41824749205261L137.9379375,74.88149404898286L138.08025,48.98878904432058L138.0864375,143.85333517938852L138.092625,166.43494046665728L138.1111875,167.76635944051668L138.22875000000002,191.5566134856781L138.637125,-58.98602231964469L138.76706249999998,140.94389870669693L138.8784375,26.490223970264196L138.9403125,93.94696653261781L139.49099999999999,38.77097722515464L139.577625,189.18934357725084L139.701375,184.51772475172766L139.7570625,151.4969374788925L139.800375,143.57867194712162L139.80656249999998,191.6924038095167L139.986,182.0335685312748L140.047875,93.76518470607698L140.171625,163.57479649968445L140.5985625,7.831751558929682L140.90175,169.22698527714238L140.9079375,177.20140495011583L141.1059375,156.44348019640893L141.3410625,-76.70053150132298L142.02787500000002,104.17163586616516L142.18256250000002,125.19806074351072L142.201125,187.6071266750805L142.2568125,198.23595528914302L142.4300625,165.75999455899L142.646625,49.8847167044878L142.720875,85.92449068464339L142.9621875,153.12898056954145L143.116875,-177.83249960839748L143.6428125,195.0042440374964L143.7789375,80.88192628137767L143.9521875,92.19648708030581L144.2863125,83.49759821221232L145.10925,190.9852823949186L145.11543749999998,159.36579099297523L145.70325,172.46599248982966L145.98168750000002,165.50232675299048L146.730375,164.3757039019838L146.7736875,11.120605565607548L147.547125,30.15240040048957L147.844125,97.76993189379573L148.09162500000002,91.67600009031594L148.24631250000002,182.5210784599185L148.537125,183.9797962261364L148.67325,157.74992322921753L148.8031875,125.79890923015773L149.2239375,164.0961365578696L149.551875,143.6169940782711L149.91075,168.7913291193545L150.183,78.74516765959561L150.20775,174.2390597043559L150.3624375,190.94624216167722L151.507125,55.733253344893456L151.5999375,177.70112982625142L151.61849999999998,195.05550539988326L151.75462499999998,112.4513838943094L151.79174999999998,4.086032141000032L152.08875,148.05633623991162L152.1815625,84.18087698891759L152.4290625,112.3536807987839L152.46618750000002,67.35468791238964L152.5528125,168.19261742429808L152.620875,136.6684651505202L152.6765625,193.99617525713984L152.96118750000002,-55.99138205498457L153.02925,157.2003247719258L153.066375,140.32609600480646L153.4314375,122.15514588542283L153.5985,135.24611611291766L153.74081249999998,196.93404759390978L154.17393750000002,122.157750422135L154.31006250000002,149.8834846811369L154.51424999999998,103.31237777508795L154.6194375,159.80335316061974L154.66275,174.6824758979492L154.91025000000002,115.53658126294613L154.9906875,155.16199043858796L155.021625,143.34128408599645L155.05875,83.00309889391065L155.0773125,138.8881692001596L155.54756250000003,134.34202454891056L155.55375,113.6412203349173L155.566125,55.59869110956788L155.82600000000002,142.9718643464148L155.84456250000002,131.24280306883156L156.036375,158.13297969661653L156.2034375,18.89048256352544L156.222,170.03939055511728L156.2529375,95.30326254107058L156.59943750000002,196.60202144959476L156.69225,192.9123892049538L156.7479375,106.8610013499856L156.7603125,78.25595159456134L157.0635,112.22062688693404L157.150125,85.54695649445057L157.41618749999998,130.13690112065524L157.69462499999997,168.85205768421292L157.94831250000001,132.84280046727508L158.02875,171.94366542762145L158.03493749999998,175.0219887974672L158.15868749999998,-222.319602124393L158.1710625,116.68349230103195L158.202,136.79119157977402L158.27006250000002,126.04109817557037L158.956875,170.73278869874775L159.08681249999998,94.24878782965243L159.50756249999998,144.7230773549527L159.51375,139.70291938539594L159.5323125,-240.69899348169565L159.5385,151.43790680821985L159.77981250000002,160.69579848926514L159.8355,147.65121126919985L159.98399999999998,176.51272340817377L160.1881875,165.9060773360543L160.342875,194.0418174964143L160.565625,87.47406639531255L160.80075,106.7056934852153L161.04825,47.332699321210384L161.09775,173.3774257977493L161.29575,122.86264025978744L161.3761875,194.61203949549235L161.7721875,96.12408723123372L162.174375,111.24587078019977L162.3166875,140.73525141365826L162.83643750000002,53.35232764855027L162.855,106.20142715424299L162.88593749999998,182.74021189799532L163.3005,-349.6900192424655L163.411875,118.31004196219146L163.87593750000002,178.81736749922857L164.11724999999998,126.11799794621766L164.1234375,182.65380268357694L165.094875,124.661287156865L165.35475,-51.18083571642637L165.3609375,95.93562921881676L165.763125,149.70661932975054L165.80025,134.15572599414736L165.92399999999998,-144.35714752972123L165.961125,-285.9860514253378L166.0910625,5.45799658074975L166.1281875,-74.71107756346464L166.49943750000003,27.74785254523158L166.8645,-45.64926130324602L167.1058125,-132.2788228243589L168.4299375,69.84322383441031L168.58462500000002,167.2288296315819L168.6650625,97.40157951973379L168.832125,107.13102422095835L168.8754375,-4.088372267782688L168.9435,151.02547924406826L168.9744375,59.53116240352392L169.02393750000002,106.68900302052498L169.1105625,136.5940545257181L169.28381249999998,-2.4071767888963223L169.71075,40.58823502063751L169.7293125,91.14656206592917L169.9891875,-45.31832029670477L170.20575,78.47827682644129L170.43468750000002,121.72112786583602L170.99775,74.93009833060205L171.09675,19.06584371253848L171.7588125,81.59568473137915L171.80212500000002,154.8125003501773L171.876375,170.94574460433796L172.1919375,-76.58754735812545L172.26000000000002,191.7816133130109L172.2661875,71.89669497683644L172.8230625,114.12405693344772L172.841625,134.13458885997534L173.75118750000001,168.8796299197711L173.7759375,-120.38696976006027L173.782125,188.7853797271382L173.8873125,143.24271555896848L173.980125,6.706311464309692L174.042,124.11042764224112L174.1100625,134.5700410231948L174.141,123.97495876438916L174.1719375,-27.47089732065797L174.1966875,77.9059875793755L174.2338125,2.2210025265812874L174.3823125,55.103548899292946L174.4441875,105.51429102569818L174.6050625,63.675647931173444L174.6174375,-29.261433888226748L174.8835,60.7710207849741L175.0258125,174.11488676816225L175.341375,39.35960252210498L175.48987499999998,76.11843468993902L175.6074375,15.206843432039022L175.6940625,60.9927525781095L175.89825000000002,87.70684274286032L176.5974375,43.4906450137496L176.900625,118.50416236929595L177.2780625,-1320.2696689367294L177.4018125,168.72536469390616L177.469875,129.53399620391428L177.59362499999997,154.07299737352878L177.964875,150.05936508905143L178.04531250000002,166.52117453422397L178.27425,66.95818840898573L178.398,36.68954028189182L178.4660625,133.4646748183295L178.9981875,116.58837725780904L179.06006250000002,30.834278002381325L179.9325,85.25839690491557L180.1614375,128.3159054853022L180.17381250000003,132.35869869031012L180.35325,174.8674103678204L180.5945625,188.9703348025214L180.8915625,177.05111040640622L181.18856250000002,154.14922540448606L181.2009375,104.50897282361984L181.25043749999998,173.91576540330425L181.4360625,101.97017593681812L181.578375,162.19029154535383L181.66500000000002,196.25621820241213L182.0176875,44.29783709719777L182.6116875,44.70228208601475L182.890125,187.45151796983555L182.91487500000002,183.98314771265723L183.286125,175.4651803909801L183.57075,78.80778368934989L183.756375,95.78798660449684L183.89249999999998,128.57096051238477L183.942,43.01671823859215L184.696875,174.13125166576356L184.88250000000002,30.239240270107985L185.01862500000001,135.19539358466864L185.2228125,100.23688972368836L185.40225,-1.6925281807780266L185.6806875,140.13889904972166L185.922,167.032133535482L186.454125,159.08628134429455L186.9058125,120.85108897089958L187.0605,131.57697501964867L187.1409375,128.23190093412995L187.19662499999998,191.80274272011593L188.0505,193.10731168161146L188.755875,145.2120502749458L188.84868749999998,154.9174483437091L189.1704375,160.59556503687054L189.3375,-145.92708972841498L189.721125,-27.793151043355465L189.8758125,48.590031176805496L190.4265,31.32826630398631L190.6554375,107.0755376983434L190.87199999999999,73.44870213791728L191.0761875,94.62289326265454L191.329875,140.8288292856887L191.99812500000002,84.95787787623703L192.097125,156.16042639967054L192.2270625,135.20607548207045L192.28275,50.44868132472038L192.38174999999998,99.22608221322298L192.77156250000002,195.36218393122545L192.77775,174.0006662942469L192.864375,99.75770442187786L193.54500000000002,135.594889129512L193.6254375,-3.227622337639332L193.6935,106.41358150541782L194.250375,44.22535514831543L194.31224999999998,140.72113251686096L194.7268125,156.44723452068865L194.9866875,77.38047284446657L195.9643125,170.75223618093878L196.4840625,76.409030104056L196.49643749999998,-16.166103534400463L196.74393750000002,149.55034300591797L196.75012500000003,84.64033045247197L196.75631249999998,37.3008151575923L196.8553125,105.2444577254355L196.93574999999998,186.94672516803257L198.4888125,182.34937684983015L198.88481249999998,152.55254137236625L198.92193749999998,26.481849890202284L198.95906250000002,175.79241034481674L198.9838125,126.4892763029784L198.99,44.17318199202418L199.45406250000002,106.1628948468715L199.7015625,150.53165578655899L200.041875,167.3923508534208L200.7163125,154.5168442223221L200.784375,149.48291352856904L200.833875,141.77721033710986L201.130875,-96.89520252496004L201.27937500000002,152.59180311486125L201.526875,98.21260422840714L201.5454375,198.54526076569164L201.799125,178.6409018947743L201.8424375,176.3913219133392L201.9538125,163.57906184066087L202.3065,139.99632539134473L202.43025,-220.65474269539118L202.4488125,107.74352718517184L202.57874999999999,-92.81761897355318L203.11087500000002,97.63339977152646L203.6739375,150.50691268779337L203.6863125,169.98332707816735L203.88431250000002,33.11095629259944L203.9956875,121.19092331640422L205.74675,168.60937832761556L205.907625,95.04387211427093L206.17987499999998,191.78654987853952L206.90381250000002,195.8560797655955L206.98425,168.54620388848707L207.55349999999999,-285.8661767989397L207.7329375,149.33305788226426L207.97425,149.40886556077749L208.3764375,153.09473420865834L209.70675,142.9673723448068L210.1955625,140.84280806500465L210.3564375,-88.378532320261L210.4925625,159.73394967522472L210.61012499999998,178.64592139748856L210.73387499999998,152.83675319887698L210.7648125,91.89183046482503L210.86381250000002,45.28217064589262L210.9380625,184.05803947616369L211.0370625,171.25996217736974L211.20412499999998,135.0673344489187L211.624875,142.41622847411782L211.9280625,68.91450868360698L212.0085,31.34934986382723L212.05800000000002,22.504277251660824L212.293125,146.68469324614853L212.6458125,-38.63733745738864L213.09131250000002,72.64108145982027L213.2955,26.75989242643118L213.3388125,21.278183352202177L213.3945,89.0425497237593L213.703875,52.14232253283262L213.7224375,158.46398251969367L213.852375,131.2605032036081L213.92662499999997,49.835659101605415L214.04418750000002,19.746666312217712L214.16175,49.030840773135424L215.00324999999998,127.26593925990164L215.5044375,6.783986002206802L215.510625,87.81218636222184L215.721,-56.42078443989158L215.8385625,100.88283955492079L216.1231875,149.51687141228467L216.5686875,68.41636631079018L216.599625,184.53903909330256L216.7605,43.92682249099016L217.045125,158.6164097338915L217.1379375,145.61247718892992L217.416375,122.92042635753751L217.6453125,185.56250147894025L217.911375,131.2691616397351L218.035125,115.97223123908043L218.07225,78.63558754697442L218.1526875,179.9080831850879L218.32593749999998,139.11910753604025L218.592,87.74681743606925L218.8395,113.74102519266307L219.25406249999997,163.60787246748805L219.40875,75.29348065517843L219.4520625,86.87940780445933L219.4768125,123.89783645421267L220.089375,77.01662895642221L220.10793750000002,195.3876894339337L220.2440625,170.84580581076443L220.3554375,-15.101227160543203L220.5534375,175.81046695495024L220.9370625,173.1312332013622L221.0236875,71.4921181127429L221.128875,187.6164156398736L221.1350625,93.49813727103174L221.3949375,-213.6482092514634L222.0075,194.08739534346387L222.1745625,172.99559123720974L223.0779375,162.52317359112203L223.405875,189.25542751466855L224.074125,157.9715602369979L224.1421875,-59.793247371912L224.90324999999999,176.9009374352172L225.2683125,145.4711810722947L225.49724999999998,191.2919094124809L225.6271875,0.8481644131243229L225.856125,156.1693980395794L226.07887499999998,160.78752598632127L226.0850625,79.30329679884017L226.23975,122.4882710762322L226.623375,160.71233235206455L226.6605,12.57746471464634L226.7533125,69.40421928092837L227.0626875,52.75272373482585L227.2235625,-171.78305098414418L227.32874999999999,137.70101559720933L227.4710625,148.33137861359864L227.7556875,192.39504404040053L228.15787500000002,136.88054532185197L228.2011875,-85.55765421688557L228.2506875,144.82762560155243L228.5476875,162.040571895428L228.603375,110.94718976318836L228.96843750000002,131.66563229542226L229.048875,195.42816818947904L229.9460625,171.9649612242356L230.02031250000002,181.09715722175315L230.2245,131.1078328443691L230.236875,189.80509087932296L230.48437499999997,52.487077474594116L230.8865625,134.32812819164246L231.3444375,189.54561081854627L231.63525,138.2189804725349L231.85799999999998,183.12670124368742L232.03743749999998,149.09443369042128L232.216875,51.895336624234915L232.2973125,128.60977305471897L232.31587499999998,187.61007841466926L232.72425,192.6772715561092L232.7428125,151.15425545163453L233.008875,170.29296404588968L233.25018749999998,163.61749112047255L233.3120625,159.69383486453444L233.330625,184.06702244910412L233.65856250000002,172.19639821350574L234.35775,74.50078660994768L234.4753125,170.03220335254446L234.51862500000001,117.00778184831142L234.5248125,162.68019995559007L234.568125,66.56091413833201L234.9703125,188.47751277289353L234.99506250000002,149.23486849665642L235.1435625,-332.0038632452488L235.21781249999998,173.8037373558618L235.29825,166.27209922671318L235.3415625,180.28367633605376L235.84275,108.23605661652982L236.0469375,157.93283835891634L236.0716875,137.02983225602657L236.23875,129.54122461751103L236.251125,176.51711444277316L236.66568750000002,104.8070027064532L236.70281250000002,173.8901919024065L236.808,158.40779128856957L237.241125,-85.99201840907335L237.303,109.23137702420354L237.4081875,43.343505173921585L237.4515,137.37961082160473L237.4700625,44.85380677878857L237.5566875,174.4271571203135L237.62475,133.14699964039028L238.46625,174.10134276514873L238.69518749999997,181.75498407008126L239.03549999999998,-11.12240170687437L239.0788125,130.09944029990584L239.481,195.55257860419806L239.6356875,93.27679286152124L239.691375,181.9189256443642L239.765625,162.0128986928612L239.88318750000002,136.57634202763438L239.988375,118.53556516952813L240.0811875,145.84391829930246L240.32250000000002,38.007468827068806L240.39675,58.849993631243706L240.5514375,128.81609192490578L240.7370625,47.05841523036361L240.78037500000002,162.7466692160815L241.13924999999998,106.01549125649035L241.2073125,105.53157492913306L241.423875,83.66977787017822L241.5414375,128.16428188607097L241.58474999999999,145.76190011948347L241.86937500000002,25.19501094147563L242.017875,159.90651259571314L242.19112500000003,165.4896626053378L242.2096875,153.91232795454562L242.42625,133.93110942933708L242.847,18.419786732643843L243.0016875,114.7180066946894L243.2120625,162.3804927840829L243.230625,-46.36158560961485L243.552375,176.64108750550076L243.55856250000002,151.66333935130388L243.6080625,116.124571910128L243.6885,184.28226762707345L244.0288125,89.32531504333019L244.195875,32.95105751976371L244.567125,46.7432003505528L244.57331250000001,84.26515353284776L244.73418750000002,179.68969978764653L244.8084375,186.59178801253438L244.90125,160.86269901506603L245.025,108.85371920093894L245.08068749999998,101.89499054476619L245.136375,64.55494282208383L245.322,185.10446876543574L245.6251875,-71.29184836149216L245.96550000000002,45.71869429573417L246.1635,170.16218086145818L246.299625,129.95961541682482L246.51,198.41446927466313" style="fill: none;" fill="none"></path></g></g></g></g></g></g><g transform="translate(51, 177)" clip-path="url(#clip_1)"><clipPath id="clip_1"><rect width="278" height="23"></rect></clipPath><g><g><line x1="0" y1="0" x2="0" y2="5" style="visibility: inherit;" fill="rgb(0, 0, 0)" stroke="rgb(204, 204, 204)" stroke-width="1px"></line><line x1="30.9375" y1="0" x2="30.9375" y2="5" style="visibility: inherit;" fill="rgb(0, 0, 0)" stroke="rgb(204, 204, 204)" stroke-width="1px"></line><line x1="61.875" y1="0" x2="61.875" y2="5" style="visibility: inherit;" fill="rgb(0, 0, 0)" stroke="rgb(204, 204, 204)" stroke-width="1px"></line><line x1="92.8125" y1="0" x2="92.8125" y2="5" style="visibility: inherit;" fill="rgb(0, 0, 0)" stroke="rgb(204, 204, 204)" stroke-width="1px"></line><line x1="123.75" y1="0" x2="123.75" y2="5" style="visibility: inherit;" fill="rgb(0, 0, 0)" stroke="rgb(204, 204, 204)" stroke-width="1px"></line><line x1="154.6875" y1="0" x2="154.6875" y2="5" style="visibility: inherit;" fill="rgb(0, 0, 0)" stroke="rgb(204, 204, 204)" stroke-width="1px"></line><line x1="185.625" y1="0" x2="185.625" y2="5" style="visibility: inherit;" fill="rgb(0, 0, 0)" stroke="rgb(204, 204, 204)" stroke-width="1px"></line><line x1="216.5625" y1="0" x2="216.5625" y2="5" style="visibility: inherit;" fill="rgb(0, 0, 0)" stroke="rgb(204, 204, 204)" stroke-width="1px"></line><line x1="247.5" y1="0" x2="247.5" y2="5" style="visibility: inherit;" fill="rgb(0, 0, 0)" stroke="rgb(204, 204, 204)" stroke-width="1px"></line><line x1="278.4375" y1="0" x2="278.4375" y2="5" style="visibility: inherit;" fill="rgb(0, 0, 0)" stroke="rgb(204, 204, 204)" stroke-width="1px"></line></g><g transform="translate(0, 8)"><text x="0" y="0" dx="0em" dy="0.95em" style="text-anchor: middle; visibility: hidden; font-family: Roboto, sans-serif; font-size: 12px; font-weight: 200;" fill="rgb(33, 33, 33)" stroke="none" stroke-width="1px">-5k</text><text x="30.9375" y="0" dx="0em" dy="0.95em" style="text-anchor: middle; visibility: inherit; font-family: Roboto, sans-serif; font-size: 12px; font-weight: 200;" fill="rgb(33, 33, 33)" stroke="none" stroke-width="1px">0</text><text x="61.875" y="0" dx="0em" dy="0.95em" style="text-anchor: middle; visibility: inherit; font-family: Roboto, sans-serif; font-size: 12px; font-weight: 200;" fill="rgb(33, 33, 33)" stroke="none" stroke-width="1px">5k</text><text x="92.8125" y="0" dx="0em" dy="0.95em" style="text-anchor: middle; visibility: inherit; font-family: Roboto, sans-serif; font-size: 12px; font-weight: 200;" fill="rgb(33, 33, 33)" stroke="none" stroke-width="1px">10k</text><text x="123.75" y="0" dx="0em" dy="0.95em" style="text-anchor: middle; visibility: inherit; font-family: Roboto, sans-serif; font-size: 12px; font-weight: 200;" fill="rgb(33, 33, 33)" stroke="none" stroke-width="1px">15k</text><text x="154.6875" y="0" dx="0em" dy="0.95em" style="text-anchor: middle; visibility: inherit; font-family: Roboto, sans-serif; font-size: 12px; font-weight: 200;" fill="rgb(33, 33, 33)" stroke="none" stroke-width="1px">20k</text><text x="185.625" y="0" dx="0em" dy="0.95em" style="text-anchor: middle; visibility: inherit; font-family: Roboto, sans-serif; font-size: 12px; font-weight: 200;" fill="rgb(33, 33, 33)" stroke="none" stroke-width="1px">25k</text><text x="216.5625" y="0" dx="0em" dy="0.95em" style="text-anchor: middle; visibility: inherit; font-family: Roboto, sans-serif; font-size: 12px; font-weight: 200;" fill="rgb(33, 33, 33)" stroke="none" stroke-width="1px">30k</text><text x="247.5" y="0" dx="0em" dy="0.95em" style="text-anchor: middle; visibility: inherit; font-family: Roboto, sans-serif; font-size: 12px; font-weight: 200;" fill="rgb(33, 33, 33)" stroke="none" stroke-width="1px">35k</text><text x="278.4375" y="0" dx="0em" dy="0.95em" style="text-anchor: middle; visibility: hidden; font-family: Roboto, sans-serif; font-size: 12px; font-weight: 200;" fill="rgb(33, 33, 33)" stroke="none" stroke-width="1px">40k</text></g><line x1="0" y1="0" x2="278.4375" y2="0" fill="rgb(0, 0, 0)" stroke="rgb(204, 204, 204)" stroke-width="1px"></line></g></g></g></g></svg>